<svg id="euqJt6E7RGe1" xmlns="http://www.w3.org/2000/svg" xmlns:xlink="http://www.w3.org/1999/xlink" viewBox="0 0 793.688 1122.52" shape-rendering="geometricPrecision" text-rendering="geometricPrecision" project-id="dc9c0a912c3a4aea85bd65e4e7b59d03" export-id="e3461feb8e384673a3d262e92f736038" cached="false"><g transform="translate(92.842405 44.048818)"><path d="M190.0366,151.7592c-22.17999,1.25062-39.84374,19.72824-39.84375,42.21875c0,21.06302,15.44427,38.52816,35.625,41.6875.78188,9.06634,1.83294,18.95077,2.34375,28.65625c1.40689,26.73111,19.67635,227.17328,11.96875,236.34375-8.01547,9.53678-42.20898,3.51595-63.3125,2.8125-21.09182-.70304-22.51042,30.9681,0,32.375c19.15143,1.19696,41.37071,3.91968,64.46875,3.40625.66859,4.78219,1.26819,10.2663,1.65625,16.28125c1.40691,21.80697-22.49543,44.33791-32.34375,57s-7.73925,25.31118,2.8125,28.125c10.37515,2.76671,4.90625,6.32518,4.90625,12.65625s-1.54718,16.20797,6.34375,24.625c10.55175,11.25521-.10141,19.92524.6875,37.28125.60865,13.39029,10.18464,23.62476,32.34375,32.0625c13.18575,50.48049,6.2334,111.57419,4.25,135.375c65.42091-9.8483,225.78873-48.54199,243.37503-59.09375-2.8139-21.80697-16.1729-99.19694-14.0625-112.5625c1.7381-11.00851-3.1833-20.10968-10.875-21.40625-.9065-27.15999,7.5169-44.09784,29.1562-69.34375c29.0392-33.87905,18.671-99.70592-1.0625-111.96875c6.6278-105.44764-28.6089-225.65997-39.7187-271.40625-11.9587-49.24153-18.9942-56.9847-31.6563-56.28125-8.8775.49319-103.85036,6.17699-162.49998,12.4375-.49939-22.86569-19.23395-41.28126-42.21875-41.28125-.27303,0-.5407-.00517-.8125,0-.17908.00341-.35273-.00564-.53125,0-.08856.0028-.16157-.00334-.25,0-.08808.00333-.16206-.00387-.25,0-.0876.00386-.16254-.00439-.25,0-.08712.00437-.16302-.0049-.25,0Zm188.56248,47.375c.0855-.00287.1653.00155.25,0c.3388-.0062.6706.00202,1,0c13.3942-.08213,19.714.82214,21.4688,1.875c3.5172,2.11036,12.6741,25.31055,7.75,29.53125s-66.8425,3.52865-69.6563,9.15625s9.8418,222.27864,14.0625,227.90625s90.0612-9.8457,92.875-5.625s4.2214,25.34244-1.4062,28.15625-43.627,7.71549-106.9375,14.75c-63.3106,7.03451-106.93623,10.57975-109.75003,7.0625s-4.92481-19.01204,1.40625-26.75s84.43488-6.32454,90.06248-14.0625-9.8724-226.51399-15.5-230.03125-86.49737,16.1735-92.12498,12.65625-8.45541-28.8265-3.53125-32.34375s46.44074-12.6849,106.93753-18.3125c28.8305-2.68191,48.8478-3.7656,62.3125-3.9375.2599-.00332.5248-.02263.7812-.03125ZM215.5991,324.8217c59.08985,7.73796,54.16441,90.7308,2.8125,98.46875-3.51724-31.65528-9.14356-81.58594-2.8125-98.46875ZM319.81788,531.04045c0,0-70.4791,183.63755-75.25003,192.09375-5.52828,9.79856-21.57322,5.63526-28.96875,1.9375-9.84831-4.92415-11.23599-17.59115-7.71875-23.21875s2.111-11.93492-1.40625-17.5625s2.09115-13.37303,7.71875-17.59375s14.07781-19.70021,14.78125-26.03125-16.13937-1.50859-33.0625-6.34375c-15.3768-4.39337,4.8302-25.93101,18.78125-40.1875c4.2872,5.25434,10.00568,11.65261,12.875,12.0625c4.92415.70345,54.85839-18.27798,56.96875-25.3125c1.86545-6.21816-49.56456-19.04718-61.53125-21.9375-.74193-2.53263-1.2213-5.0843-1.0625-7.625.36546-5.84743,2.25475-9.4015,6.25-13.75c19.93989-1.45282,54.68098-3.92856,91.62503-6.53125Zm62.4375,54.96875c.0285-.00351.0651.00314.0937,0c.0038-.00014.0273-.00003.0313,0c.0121.00055.0511.00033.0625,0c.0059.00012.0274.00014.0312,0c.0315.00011.0935-.00049.125,0c.0038-.00007.0253-.00008.0313,0c2.2397-.15535,4.691.83775,7.4375,3.3125c17.2425,15.53644,4.295,38.19345,0,46.40625-4.7153,9.01623-12.8963,20.50723-22.875,22.0625-14.4635,2.25426-12.2592,17.07752-3.1563,18.75c22.1786,4.07487,29.5394-21.80241,45.7188-9.84375c10.188,7.5303,11.2256,21.65202,3.0937,31.53125-11.2733,4.34182-26.3718,9.72703-46.7187,14.90625-17.9543,4.5702-51.8054,10.18985-82.93753,14.90625l36.59373-95.1875c24.2825-2.05406,38.1351-5.57116,44.9375-21.03125c5.2616-11.95809,10.2422-24.91821,17.5313-25.8125Zm20.0312,144.6875c.0062.00011.028.00012.0313,0c.0264.0002.068-.00037.0937,0c.0032-.00008.025-.00009.0313,0c.0062.00009.028.0001.0312,0c.0267.00015.0679-.00033.0938,0c.0031-.00007.0249-.00007.0312,0c.0029-.00022.0249-.00008.0313,0c.0209.00011.0422-.00029.0625,0c.0064.00006.0285.00018.0312,0c.3161-.01999.5336-.01924.6875,0c6.5851.82315,8.4548,17.60645,4.9375,23.9375s-139.44306,41.61443-143.49998,35.875c-5.38025-7.61153-3.0425-26.11101,4.90625-29.5625c10.54471-4.57869,119.14353-28.99471,132.53123-30.25Zm6.8438,49.21875c.0028.00003.0278-.00016.0312,0c.0028.00002.028-.00016.0313,0c.0027.00001.0282-.00012.0312,0c.0027,0,.0283-.00008.0313,0c.0271-.00047.069-.00092.0937,0c.0061.00011.0251.0001.0313,0c.1631-.00268.2788.01923.375.03125c6.5851.82315,8.4547,17.57517,4.9375,23.90625s-144.68821,46.23801-149.15628,40.8125c-5.38025-6.53316-3.01123-25.29193,4.9375-29.53125c10.26323-5.47372,127.00728-34.26573,138.56248-35.1875.003.0001.0286,0,.0313,0c.0034.00015.0284-.00002.0312,0c.0027-.00285.0284-.02772.0313-.03125Z" fill="#fbfbfb" fill-rule="evenodd"/></g></svg>
