<svg id="eZEamiDlMUW1" xmlns="http://www.w3.org/2000/svg" xmlns:xlink="http://www.w3.org/1999/xlink" viewBox="0 0 793.688 1122.52" shape-rendering="geometricPrecision" text-rendering="geometricPrecision" project-id="dc9c0a912c3a4aea85bd65e4e7b59d03" export-id="815a4e1d4f4c4637a7e19b04c17f9d50" cached="false"><g transform="translate(46.170911 62.778448)"><path d="M430.15304,98.905114c-56.3223,1.275656-110.9641,33.643866-120.75,110.843746c0,0-95.52219,33.82148-195.99996,71.625c2.02506,18.73185,4.55572,35.81071,8,51.625-15.63463,50.85681-26.784704,112.75651,5.9375,119.46875c25.23733,5.1769,31.47274-14.90773,32.53125-31.09375c22.30467,30.06378,55.02829,57.76283,103.875,89.03125-13.6799,35.70272-25.08108,67.42722-23.03125,93.5625c1.841,23.47267,31.08876,72.85585,51.09376,104.1875-6.7132,1.93747-12.3765,6.91331-15.2188,20.3125-4.9241,23.21386-30.24996,128.03125-30.24996,128.03125s75.99606,43.61035,151.96876,41.5c75.9726-2.11037,136.4687-45.71875,136.4687-45.71875s-21.1084-109.74609-23.2187-118.1875c-1.7749-7.09934-2.0514-19.19323-11.7188-23.6875c43.5161-63.23193,56.1717-78.88356,57.4375-115.59375.737-21.37306-13.4342-50.81082-26.5312-73.28125c14.6961-19.81084,15.8067-39.09533,9.4375-70.03125c76.6019-92.51914,67.0098-218.85611,8.9687-299.46875-24.1323-33.5172-71.3702-53.772846-117.6875-53.124996-.2218.0031-.4344-.00406-.6562,0-.2209.00405-.4354-.005-.6563,0Zm11.125,18.281246c132.0778-1.04883,176.137,212.1949,91.9688,298.4375.4146-2.54456,13.441-84.44093-15.9375-142.21875c0,0,12.9445,84.56677-33.8125,109.4375.9944-17.90008-.0261-71.58099-28.8438-125.28125.5908,2.83529,19.11,93.68571-28.875,108.375c0-12.93278-3.9831-62.69063-36.8125-117.40625c14.9155,46.73507,21.8822,99.40266-32.75,125.28125.6825-2.45239-4.6652-55.19465-16.9687-89.46875-13.9276-38.79835-33.8177-164.31771,100.4687-167.125.5208-.01073,1.0445-.02714,1.5625-.03125Zm-141.8125,116.375c.0066.00003.0282-.00006.0313,0c.0264.0001.0683-.0005.0937,0c.0062.00008.028.00025.0313,0c.0062.00009.0279.00011.0312,0c.0267,0,.0681-.0004.0938,0c.0062-.00006.0252.00031.0312,0c.2964-.01501.5164.01587.6563.0625c5.969,1.98966,12.9271,24.8696,10.9375,29.84375-1.9897,4.97415-160.15604,62.67199-166.12501,59.6875s-11.53272-21.23714-6.96875-28.84375c4.2532-7.08865,146.90246-59.32505,161.18746-60.75Zm106.4375,125.40625l6.9375,51.71875l47.75-42.78125l2,63.6875l46.75-41.78125c0,0,1.9899,36.81676-5.9687,61.6875-13.9276,4.97415-87.5294,8.92716-135.2813,6.9375-46.6051-1.94188-76.0775-20.96364-77.4687-21.875.0247-.00724.0453-.02382.0625-.03125.0055-.00564.0257-.02554.0312-.03125.0111-.00484.0519-.02578.0625-.03125.0053-.01049.0264-.05138.0313-.0625.0056-.00547.0256-.02571.0312-.03125.0066-.01225.0254-.04911.0313-.0625.0056-.01067.0258-.05155.0312-.0625.0015-.0049-.0014-.02548,0-.03125.0085-.03858.0252-.09022.0313-.125.3335-2.12327-2.4406-11.39553,10.5-30.375c14.9224-21.88625,40.7812-33.81249,40.7812-33.8125l8.9688,41.78125l54.7187-54.71875Zm-247.99996,8.65625c.04047-.00595.08588.00369.125,0c.00559-.00053.02595.00024.03125,0c.02039-.00012.04171-.00049.0625,0c.00545-.00001.02546.00022.03125,0c10.16885-.38779,54.42602,58.25772,127.37496,92.8125c75.6071,35.81386,225.8279,6.95819,234.7813,10.9375s2.9793,28.86963-1,33.84375-107.4543,26.85523-212.9063-1C200.95116,476.36239,149.22569,377.8534,157.18433,367.90511c.02295-.01434.06759-.0463.09375-.0625.08147-.04339.1931-.09449.28125-.125.10375-.03394.22233-.07591.34375-.09375Zm231.34376,168.8125c.2218-.00519.4333.00499.6562,0c.2569-.00575.523.0055.7813,0l1.7812,47.84375c-29.0466-.89734-52.3401-9.07847-90.8437-23.53125c10.0209-15.32543,31.0648-22.98965,87.625-24.3125Zm115.2812,30.6875c-6.5203,39.18391-13.0589,93.21611-28.1562,104.375-16.1794,11.9587-29.5407,9.84896-42.9063-1.40625-13.3655-11.25522-16.1722-23.20963-15.4687-42.90625.1403-3.92778.2712-7.58382.4062-10.90625c15.4597-.83789,52.3809-3.061,55.1563-5.28125c2.4287-1.943-5.5223-12.94051-10.6875-19.5625c13.2643-5.7546,26.7171-13.69916,41.6562-24.3125Zm-209.4062,11.40625c14.8559,5.58847,27.4753,10.28823,38.9375,14.09375l-8.9063,19.09375c0,0,35.8558,4.90755,43.5938,2.09375c4.3733-1.59028,11.007-6.33823,15.9375-10.15625c2.7951.19478,5.634.32167,8.5312.375l1.6875,45.65625c0,0-17.5892,9.1351-27.4375,21.09375s-24.6451,16.19726-48.5625-4.90625c-20.5801-18.15892-27.5958-62.36565-23.7812-87.34375Zm109.75,126.34375c.0028.00005.0277-.0004.0312,0c.0035.00016.0285-.00006.0313,0c.0107-.00003.0517-.00031.0625,0c.0161-.00019.0507.00011.0625,0c.0235.00042.0704-.00062.0937,0c.0078.00003.0236.00024.0313,0c3.8163-.11734,7.941,1.47923,12.0937,4.59375c8.4414,6.33104,9.1651,9.87565,23.9375,8.46875c3.5173,39.39321-75.2607,58.38575-85.8125,1.40625c18.9932-1.40688,33.7474-.73079,39.375-8.46875c2.7699-3.80852,6.2337-5.74149,10.0313-5.96875.0029.00009.0285.00001.0312,0c.0035.00015.0285-.00002.0313,0-.0004-.00351.0001-.02838,0-.03125Zm-107.8125,39.03125c.007-.00006.0295-.00021.0312,0c.0305-.00127.095.00104.125,0c6.3223-.72215,73.2726,26.45297,77.1563,32.40625c4.0091,6.14557,21.8157,93.55859,14.7812,102s-21.7946,4.90885-26.7187-.71875c-4.9242-5.62761-12.6856-78.0752-16.9063-84.40625s-48.5293-21.10644-52.75-27.4375-.7054-20.4056,4.2188-21.8125c.0103.00009.0514-.00036.0625,0-.0002-.00175-.0001-.02423,0-.03125Zm195.6875,4.1875c.0054-.00063.0259.00023.0312,0c.021.00023.0419-.00037.0625,0c.0052-.00018.026.00057.0313,0c.0026-.00029.0247-.0001.0312,0c.0263.00025.0681.00079.0938,0c.0313-.00112.0945.0008.125,0c.031-.00098.0948.00066.125,0c.0307-.00084.0951.00051.125,0c.0749-.00467.1497.0023.2187,0c.3593-.01195.6202.03879.8125.09375c4.9242,1.4069,6.3458,17.57522,2.125,23.90625-4.2207,6.33106-42.2168,16.88767-46.4375,23.21875s-18.9821,74.55988-23.9062,80.1875c-4.9242,5.6276-21.1218,9.12892-28.1563.6875s11.7426-93.73948,21.125-101.28125c8.0224-6.44847,62.5124-25.5175,73.5938-26.8125Z" fill-rule="evenodd" stroke="#000"/></g></svg>
