<svg id="ecq8AJTzp7R1" xmlns="http://www.w3.org/2000/svg" xmlns:xlink="http://www.w3.org/1999/xlink" viewBox="0 0 793.688 1122.52" shape-rendering="geometricPrecision" text-rendering="geometricPrecision" project-id="dc9c0a912c3a4aea85bd65e4e7b59d03" export-id="4f1f1c8b8e7341c1b3b8bb963327de89" cached="false"><g transform="translate(-22.5012 57.596502)"><path d="M556.2291,106.19784c-.6999.02736-1.3865.07838-2.0938.09375-16.587.36059-29.4488,8.38753-39.6562,22-34.381-10.58761-69.0183-15.46086-101.7813-15.375-.5885.00154-1.1626-.00472-1.75,0-.2913.00234-.5839-.00312-.875,0-.2899.00311-.5853-.00389-.875,0-.2884.00387-.5868-.00464-.875,0-.287.00462-.5882-.00538-.875,0-73.1217,1.37182-136.15153,27.46549-164.71871,68.96875-53.03281,77.04768-23.74381,132.03414,10.9375,148.21875c21.32111,9.94986,73.61061,5.17452,106.09371-28.46875c1.3058,12.56077-1.7716,27.26165-8.4687,43.84375-18.215,9.36698-33.3786,20.0614-43.87501,29.40625-23.49533,20.91768-40.61537,45.85375-60.96875,70.3125-1.69876-.89019-3.28868-1.76246-4.71875-2.65625-15.91727-9.9483-32.8071-.00068-37.78125,17.90625-2.58962,9.32262-1.67014,18.60333,3.03125,25-31.99578,25.86478-57.80304,26.11189-58.75,33.6875-.99483,7.95864,8.50434,33.73139,51.71875,43.78125c6.03315,1.40306,12.61666,1.84143,19.65625,1.625-15.17604,12.37618-35.5625,30.75199-35.5625,40.15625c0,5.48681,4.30566,14.74472,9.75,24.25-10.92713,8.33585-21.6875,20.84618-21.6875,32.4375c0,11.62399,10.27689,26.25292,24.21875,32.15625-11.4361,19.00062-17.52038,29.66301-18.25,35.5-.99483,7.95861,24.86466,92.5074,22.875,172.09375c96.49846-15.91727,218.87156-35.79137,308.40626-43.75-5.1832-64.41909,10.0103-113.96838,18.125-135.09375c40.7265.26148,99.1924-15.36761,118.4687-56.71875-62.6626-23.88452-56.0123-85.75222-4.2812-164.34375C684.277,436.494,719.4501,310.9927,655.4791,220.38534c3.5023-4.18553,6.5608-8.09205,9.0625-11.625c22.3916-31.62226,16.4138-48.34407-4.9688-70.65625-22.0766-23.03652-57.1162-32.18527-100.6562-31.90625-.3966.00254-.7906-.00653-1.1875,0-.1489.00245-.2885-.00324-.4375,0-.1304.00283-.2754-.00353-.4063,0-.1144.00309-.2294-.00374-.3437,0-.1.00328-.2125-.00391-.3125,0Zm7.5937,21.375c.0313-.00318.0626.00232.0938,0c.0313-.00094.094.00042.125,0c.0034-.00018.0251-.00007.0312,0c.0386-.00003.083.0012.125,0c.2241-.00638.462.00151.6875,0c38.0486-.25564,100.991,18.60012,88,55.53125-4.0307,11.45868-30.4383,47.36126-38.5,56.3125-42.7001,47.41232-61.2338,55.90764-105.3125,99.375-19.9544,17.53936-20.8192,46.66747-34.5625,68.3125-4.4034,13.27286-25.5494,14.29716-31.5,1.84375-4.8951-14.76849,5.0589-29.63851,16.0313-38.875c13.0643-7.54392,16.8526-26.65517,18.875-41.3125c12.2165-55.06438,18.2189-107.619,36.9062-161.125c5.8513-18.35897,17.8843-36.42209,38.8438-39.3125c3.003-.41413,6.3129-.65133,9.875-.71875.0936-.00177.1875-.02171.2812-.03125Zm-139.25,62.03125c.1733-.00522.3576.00472.5313,0c.1744-.00474.3563.00423.5312,0c.1756-.00425.3552.00374.5313,0c.1768-.00375.354.00324.5312,0c.178-.00325.3529.00272.5313,0c.1791-.00273.3516.0022.5312,0c.73-.00894,1.4494.00003,2.1875,0c11.5556-.00043,34.273,5.37996,56.5,12.4375-2.6012,12.18927-4.8654,25.12342-6.9375,38.53125-6.0605,39.21673-10.881,65.36827-14.0937,81.96875-31.5608-4.31096-62.8383,1.78353-89.9688,12.15625c6.7799-17.97429,14.6158-65.16243,8.5313-88.15625-65.6588,23.87591-54.6776-13.92131-40.75-28.84375c8.6337-9.25037,37.1633-26.76278,81.3437-28.09375Zm175.7188,88.09375c15.7277,23.11819,27.6435,54.85805,29.4375,100.15625c2.1357,53.92674-23.3222,108.70201-39.375,152.84375-.4811-11.46396-.8959-23.31546-1.4063-35.4375-3.2898-78.13337-21.0142-122.58964-61.5-149.34375c16.635-15.59595,45.347-41.70888,72.8438-68.21875ZM442.1978,342.97909c.0067-.00148.0244.00121.0313,0c.0107.00007.052-.00028.0625,0c.0027-.00016.0287-.00002.0312,0c.0026.00007.0286.00008.0313,0c.0117-.00047.0508-.00049.0625,0c.0039.00007.0273.00007.0312,0c.0365-.0011.0887.00138.125,0c.1662-.0063.3322.0018.5,0c5.7312-.0613,11.5781.56653,17.4063,1.84375-5.7612,9.14383-30.0305,15.65821-36.6875,52.9375-4.9742,27.85522,27.8689,45.75563,50.75,34.8125c16.4375-7.86142,27.7522-42.64104,34.3125-61.4375c15.3518,14.67459,25.6671,33.67955,25.4687,53.5625-.5478,54.91015-18.3671,88.54539-30.4375,144-8.7744,40.31207,20.1162,96.25035,99.6875,110.375-25.3255,20.69758-51.0429,28.88506-82.375,20.6875-58.2349-15.2363-72.4668-76.1271-83.5-102.75-11.7094-32.41103-42.5525-54.8797-75.4062-62.4375-39.115-10.405-79.82377-.88759-118.93751,5.21875-22.0199,3.9378-47.96709,4.83936-65.625-10.9375c10.37727-5.36823,24.0653-14.73372,33.53125-22.75c4.76256-4.0332,9.26857-8.15825,13.59375-12.3125.00706-.0001.02963-.00032.03125,0c2.14768.03937,4.43812-.13635,6.90625-.53125c24.87073-3.97932,66.18227-3.53761,100.46871,3c42.0937,8.02626,62.6866,11.93165,86.5625,28.84375s70.5987,14.91529,68.6563-25.875c-1.9897-41.78283-31.8584-49.73989-58.7188-41.78125s-50.7275,14.9429-94.5,9.96875c-29.4096-3.34201-53.87423-8.95706-71.59371-15.28125c21.70286-26.08727,42.54045-52.43606,73.68751-76.03125c32.5473-24.65593,81.9092-33.02719,105.7187-33.09375.0067-.00017.0248.0007.0313,0c.0064-.00112.0249.00142.0312,0c.0128-.00322.0495-.02797.0625-.03125Zm-84.0625,213.5625c6.9909,1.77288,13.9747,4.17984,20.9063,7.34375c11.0862,5.06029,19.2704,11.87338,25.625,19.75l-58.875,92.96875c-57.03799,21.02033-54.74528-6.57952-64.25001-35.09375-7.88869-23.66606-41.44104-26.0644-61.4375-23.5625-3.27043-6.7553-5.51895-12.54822-5.21875-15.25.65286-5.8757,29.13876-28.87272,48.65625-44c.00708-.00009.02969-.0003.03125,0c3.53337-.6126,7.12138-1.24824,10.75-1.84375l4.21875,25.9375l79.59371-26.25Zm69.125,115.90625c13.7661,15.20539,33.3573,36.81615,43.2813,47.65625-56.9108,5.43616-180.04518,25.8433-224.81251,37.78125-17.30231,4.61395-32.83297-1.98924-42.78125-11.9375-8.69196-8.69196,2.38658-22.69995,21.90625-51.3125c10.22678-1.43434,16.74151-1.34503,20.875,14.5c5.1038,19.56454,53.36033,40.84579,96.59371-17.5l84.9375-19.1875Zm65.25,63.5625c.2847-.00441.5616.00367.8438,0c.2833-.00369.563.00294.8437,0c1.4319-.01498,2.8538-.00486,4.2188,0-1.741,17.16081-6.9688,33.81252-6.9688,33.8125s-166.1292,25.87474-190.99996,31.84375-23.88488,15.91456-37.8125,71.625l-40.78125,5.96875c-4.97415-24.87074,20.87972-87.54629,33.8125-102.46875c12.58132-14.51691,164.26621-39.65604,236.84371-40.78125Z" fill="#fff" fill-rule="evenodd" stroke="#fff"/></g></svg>
