<svg id="ezQqsUixv2H1" xmlns="http://www.w3.org/2000/svg" xmlns:xlink="http://www.w3.org/1999/xlink" viewBox="0 0 793.688 1122.52" shape-rendering="geometricPrecision" text-rendering="geometricPrecision" project-id="dc9c0a912c3a4aea85bd65e4e7b59d03" export-id="74568a54bd9343f08c9ba812317f10f0" cached="false"><g transform="translate(25.113576 70.947492)"><path d="M400.69644,116.47147c-.0789.00993-.1443.03049-.2187.03125-.4638.00237-.9426-.00603-1.4063,0-.23.00299-.4575-.00389-.6875,0-.229.00387-.4584-.00477-.6875,0-.2281.00475-.4594-.00563-.6875,0-58.1648,1.43562-114.96015,31.55514-148.49996,78.68751-7.77455,11.03692-13.78059,23.29955-20.25,35.1875-1.84623-.74948-3.85454-1.15625-5.96875-1.15625-8.78633,0-15.90625,7.11991-15.90625,15.90625c0,3.35032,1.01118,6.46588,2.78125,9.03125-7.9956,5.45653-16.65131,10.12525-24.0625,16.40625-16.4978,12.3671-43.60732,24.22334-54.375,42.03125-3.19058,7.60177,1.98718,17.39545,10.5625,17.84375c17.89726,4.29251,46.40391,1.66044,64.59375,2.875c10.92813.07334,22.10021.3731,33.1875,1.34375-2.92792,2.96643-5.76754,5.98407-8.5,9.03125-10.32664,12.31341-23.81966,24.0059-27.15625,40.375-.54151,8.25524,1.71581,16.03723,4.6875,23.625-1.8275,2.40862-3.90003,5.7238-6.5625,10.25-9.9483,16.9121-2.99552,35.79655,15.90625,44.75c1.72733.81821,3.95209,1.64878,6.5625,2.40625-5.24726,14.07234-11.92681,30.682-3.75,44.9375c7.50069,13.42106,22.02517,19.71725,37,21.40625-1.84314,22.1434-7.82919,93.91905-8.6875,104.21875-.9948,11.93797-2.9737,21.90063-9.9375,32.84375-.77765,1.22208-2.36227,4.39659-5.1875,8.625-2.76024,4.1312-8.43769,3.32038-19.9375,3.5625-23.89132.50301-29.91845,27.64187-20.65625,40.78125c4.83199,6.8547,7.25554,11.79253,5.71875,15.125-1.49219,3.23583-18.99818,32.62677-27.6875,47.5625-3.18471,4.3057-7.14719,2.11429-19.15625,2.375-30.27593.65729-34.91924,49.38371-5.8125,59.8125c9.59888,3.43927,14.41609-4.79761,16.71875-9.5625c2.0347-4.21037,92.39309-159.34352,95.875-165.3125c6.96383-11.93792,10.94784-24.84847,12.9375-37.78125c1.52662-9.92292,5.40394-73.6788,7.125-102.84375c7.94848-1.65036,14.94057-5.6249,21.18746-10.6875c48.4746-15.76524,152.9333-36.9084,183.9063-35.03125-.0001,11.93796,7.9377,26.875,1.9687,26.875-41.7828,4.97413-170.1903,24.74715-173.0937,37.8125-1.9897,8.95345-8.9377,64.63513-2.9688,72.59375c3.4805,4.64067,46.7635-13.92154,103.4688-22.875s87.5312-12.9375,87.5312-12.9375s6.9481,15.94245,2.9688,22.90625c-81.576,16.91215-201.9218,40.77068-204.9063,44.75-2.9728,3.96382-122.42504,208.30991-122.37496,209.90625c126.34336-39.79318,182.04826,1.99573,281.53126-22.875s162.172-78.57778,159.1875-87.53125-89.5416-159.18188-91.5313-170.125c-2.1429-11.78608-29.0471-99.86202-10.9375-123.375c9.6943-12.58678,39.9298-9.43867,61.5-5.6875c10.6898.38594,24.4383-4.62423,26.0625-16.53125c1.8665-28.10751-21.3677-51.32019-17.8125-79.65625c2.5972-16.46677,6.7165-32.92341,8.5625-49.5625c4.8943-34.82217,3.4419-72.15891-14.25-103.34375-22.6375-41.80756-65.3379-70.23103-111.0937-80.96876-21.5038-5.59503-43.711-8.17159-65.9375-8.03125-.1764.00111-.3538-.00709-.5313,0-.0055.00022-.0259-.00004-.0312,0-.0207-.00032-.0419-.00002-.0625,0-.0027.00008-.0248.00007-.0313,0-.0119.00023-.0512.00053-.0625,0-.0039-.00001-.0272-.00016-.0312,0-.0255.00245-.0674-.00331-.0938,0Zm-.4062,16c.0231-.00332.0394.00246.0625,0c.0039-.00016.0273-.00001.0312,0c.0118.00053.0508.00023.0625,0c.0258-.00085.0676-.00041.0938,0c.0053-.00005.0259.00022.0312,0c.1713-.0072.3581.0009.5313,0c21.8242-.11333,43.6645,2.40013,64.6875,8.125c39.1795,9.54033,81.1463,37.09986,93.4375,59.53126c12.0687,22.02545,9.5008,45.74956-7.6563,51.96875-40.8389,14.80353-58.7925-41.86979-120.375-35.8125-60.6846,5.96898-91.509,38.78506-129.3125,75.59375-.0001.00267-.0001.02839,0,.03125.0003.00293.0002.02484,0,.03125-.0001.00303,0,.02842,0,.03125.008.01682.0268.05426.0313.0625c1.9049,2.10542,54.2526,7.43095,110.375,28.71875c56.471,21.42001,52.9688,65.22401,160.0937,69.375c4.7084,14.10116,12.14,27.38622,13.6563,42.34375c1.6828,5.26553-5.3267,6.13149-8.875,6.03125-21.0553-3.52694-42.3354-5.71041-63.7188-6.65625-28.6147-3.12282-51.5069-5.52577-80.2187-7.625-20.4075-.64151-41.8384-9.42054-57.7813-22.59375-17.8817-12.96036-28.8516-30.89717-43.6562-46.71875-25.3169-26.07478-63.24206-34.52999-98.50001-36.75-25.09832-2.352-50.43134.81442-75.4375-1.6875c9.95167-12.33201,22.26613-22.43554,34.96875-31.75c10.94755-9.23339,24.4532-15.15803,35.03125-24.65625.01257-.00576.04931-.02446.0625-.03125.00648-.00652.02876-.02862.03125-.03125c5.84667-2.22413,10.04157-7.77,10.25-14.34375c6.96589-12.13715,12.68141-25.07575,20.4375-36.8125c30.35837-46.07568,84.73156-75.26269,139.84376-76.31251.0842-.00124.1419-.0215.2187-.03125.007.00007.0295.00008.0313,0c.0058-.00005.027-.00018.0312,0c.0041.00007.0275.00008.0313,0c.0297-.00096.0949.00047.125,0c.0062.00007.028.00008.0312,0c.0263.00005.0676-.00028.0938,0c.0063-.00007.0252.00027.0312,0c.0081-.00036.0234.00016.0313,0c.0463-.00004.1065.00117.1562,0c.2655-.00624.5465.00238.8125,0c.0731-.00066.1495-.02128.2188-.03125ZM291.85273,237.59648c-8.50169.32349-15.28126,7.32585-15.28125,15.90625c0,8.78633,7.11991,15.93749,15.90625,15.9375s15.90621-7.15116,15.90621-15.9375-7.1199-15.90625-15.90621-15.90625c-.20593,0-.42096-.00776-.625,0Zm61.09371,16.5c.0314-.00332.0624.00313.0938,0c.0039-.00014.0273-.00004.0312,0c.0117.00057.0508.00037.0625,0c.004-.00013.0274-.00004.0313,0c.0116.00054.0507.00034.0625,0c.0039-.00012.0273-.00004.0312,0c.0116.00051.0507.00032.0625,0c.097-.0079.1839.00614.2813,0c.0062.00008.028.00011.0312,0c.04-.00055.0901-.00037.125,0c.0058.00007.0272.00021.0313,0c.2712-.01376.5379,0,.8125,0c8.7863,0,15.9062,7.11992,15.9062,15.90625s-7.1199,15.90625-15.9062,15.90625-15.9063-7.11992-15.9063-15.90625c0-8.21664,6.2551-15.0608,14.25-15.90625Zm78.5,22.875c.0312-.00348.0626.0033.0938,0c.0039-.00015.0273-.00004.0312,0c.0117.0006.0508.00039.0625,0c.004-.00014.0274-.00004.0313,0c.0117.00057.0507.00037.0625,0c.0039-.00013.0273-.00004.0312,0c.0117.00054.0507.00034.0625,0c.0965-.00843.1844.00669.2813,0c.0062.00008.028.00012.0312,0c.0399-.0006.09-.0004.125,0c.0058.00008.0272.00023.0313,0c.0494-.0028.1096-.00046.1562,0c.0058.00006.0272.00019.0313,0c.2376-.01055.4785,0,.7187,0c8.7864,0,15.9063,7.11992,15.9063,15.90625s-7.1199,15.9375-15.9063,15.9375c-8.7863,0-15.9062-7.15117-15.9062-15.9375c0-8.18532,6.2053-15.01855,14.1562-15.90625Zm68.5625,37.78125c.0028.00001.0281-.00014.0313,0c.0102-.00077.0515-.00026.0625,0c.0166.00074.0479-.00014.0625,0c.2341-.00244.4558.03125.6875.03125c8.7863,0,15.9062,7.11992,15.9062,15.90625s-7.1199,15.90625-15.9062,15.90625-15.9375-7.11992-15.9375-15.90625c0-8.3129,6.4018-15.19326,14.5312-15.90625.002-.00018.0245-.00006.0313,0c.0039.00003.0254.00005.0312,0c.0039.00005.0273.00011.0313,0c.0062.0001.028.00014.0312,0c.0398-.00069.09-.00045.125,0c.0058.00009.0272.00028.0313,0c.0062.00008.028.00013.0312,0c.0399-.0006.09-.0004.125,0c.0058.00008.0272.00024.0313,0c.0032.00013.0285-.00001.0312,0c.0107-.00556.0517-.02567.0625-.03125ZM255.72773,339.97148l11.75,22.59375l42.43751-5.5625c1.0038.69329,2.0142,1.3909,3,2.125c18.8782,14.9325,28.3873,39.87859,46.9375,55.03125.6616.61444,1.332,1.21699,2,1.8125-15.6524,22.31785-31.8904,44.21705-48.625,65.75-11.0703,13.00376-21.41423,29.79161-39.28126,33.65625-13.57968,1.15464-30.02381.29234-38.75-11.65625-6.94736-11.59595,1.32214-24.12183,4.875-35.59375c29.58309,3.09884,72.15066-4.94229,63.90626-58.15625-18.90176,25.86557-49.71852,27.85029-55.68751-6.96875.00001,0-14.9267-.00518-24.875-1-.14512-.01451-.29571-.01721-.4375-.03125-2.0229-5.32086-3.49737-10.79195-3.53125-16.5625c4.78088-12.00416,14.43036-21.33696,22.90625-30.9375c3.47515-3.81741,9.57219-10.79026,13.375-14.5Zm132.25001,98.15625c9.6366,11.11635,19.2065,22.29046,28.8437,33.40625-19.9897,3.83261-39.9729,7.69928-59.9687,11.5c9.8976-14.25196,19.769-28.52209,29.6562-42.78125.4896-.70833.9792-1.41667,1.4688-2.125Zm36.875,208.1875c.0672-.00422.1514.00381.2187,0c.0677-.0038.1198.00342.1875,0c.0681-.0034.1507.00301.2188,0c.0684-.003.1502.00261.2187,0c.4209-.01598.8253,0,1.25,0c18.1219,0,32.8438,14.69069,32.8438,32.8125s-14.722,32.84375-32.8438,32.84375-32.8125-14.72194-32.8125-32.84375c0-17.42215,13.5666-31.73625,30.7188-32.8125Zm47.875,26.875c.603.42438,19.9164,14.07161,21.875,24.84375c1.9896,10.94314,2.9685,43.77068,8.9375,47.75s27.8646,5.96807,25.875,23.875c-1.9897,17.90699-11.9371,25.85949-23.875,22.875s-29.8264-4.97414-74.5938,0c-44.7673,4.97417-83.5879,22.88534-100.5,24.875-16.912,1.9897-26.8388-17.89523-19.875-33.8125c6.9639-15.91722,21.8593-8.95279,24.8438-17.90625s6.9885-55.72301,34.8437-80.59375c8.9535,18.90179,22.875,28.84375,22.875,28.84375s-28.8388,52.71853-21.875,58.6875s93.4946-4.95278,98.4688-13.90625-11.9375-47.75-11.9375-47.75s8.9582-8.95279,12.9375-17.90625c3.855-8.67362,2.1129-19.22466,2-19.875Z" fill="#fff" fill-rule="evenodd"/></g></svg>
