<svg id="ee8Kd2UBgXJ1" xmlns="http://www.w3.org/2000/svg" xmlns:xlink="http://www.w3.org/1999/xlink" viewBox="0 0 793.688 1122.52" shape-rendering="geometricPrecision" text-rendering="geometricPrecision" project-id="dc9c0a912c3a4aea85bd65e4e7b59d03" export-id="623a176365b1444dad3e88b45e3254c5" cached="false"><g transform="translate(46.053937 115.936384)"><path d="M312.98694,80.290911c-20.75914.91044-29.9574,12.27948-31.9375,47.656249-2.39771.1283-4.82725.29864-7.28125.4375-29.53119,1.67098-40.08985,16.17577-48.53125,41.5s-29.5319,142.7806-28.125,144.1875c-9.84831,60.49675,1.67405,64.34625,34.46875,68.9375c7.73058,1.08228,16.22918,1.72805,25,2.21875-10.81327,15.87851-21.60782,31.78403-31.53125,48.21875-.00177-.00031-.02423-.00009-.03125,0-8.51676,4.02953-22.0379,5.65107-38.71875-5.15625c0,1.22005,6.49608,49.4661,38.59375,49.9375-4.66117,15.74711-8.5808,32.95818.03125,47.78125c5.80402,8.85327,15.19148,12.96462,25.25,14.90625l-.78125,37.34375c-37.91043,3.55165-75.75073,9.33617-112.6875,18.40625-18.01519,6.4857-34.0065,24.62666-31,44.78125c3.30081,13.53661,18.7041,19.68093,31.5625,18.65625c17.39581,1.03696,34.8341.98194,52.25.59375-7.28001,9.25412-6.965,22.59174-.875,32.375c6.81312,15.46625,13.68321,31.23907,22.65625,45.5625-5.42125,17.95277-10.8555,35.89239-16.28125,53.84375c71.34541,20.46923,148.62325,18.9236,219.65625-2.34375c7.94822,3.25237,15.89904,6.52029,23.84375,9.78125c7.51562-4.16902,14.01316-9.52373,19.53125-15.71875c54.606,21.46395,89.64029,31.75289,100.03125,23.09375c12.66213-10.55177,35.8584-27.43391,37.96875-68.9375s-13.34537-84.40039-43.59375-97.0625c-8.12652-3.40178-19.19153-8.52803-31.3125-14.0625c20.26012-18.9758,35.14294-33.05878,42.9375-75.28125c7.80018-42.2529-9.83959-78.04544-33.3125-115.3125c10.40781-45.48735,17.71936-115.42768,11.03125-154.21875-7.03455-40.80014-12.35964-112.98078-46.4375-121.6875-59.67301-15.24614-100.14298-23.86233-130.34375-28.53125-.47305-38.620759-11.10382-48.561539-39.125-51.343749-3.82774-.38005-7.35189-.58972-10.625-.5625-.26215.00218-.52254-.00512-.78125,0-.17045.00338-.33104-.00467-.5,0-.08382.00232-.16654-.00264-.25,0-.08313.00263-.16723-.00295-.25,0-.08244.00294-.16792-.00326-.25,0-.08176.00325-.16859-.00357-.25,0Zm38.71875,68.187499c13.27809,3.27401,26.55351,6.52587,39.84375,9.75c1.87807,12.11178,4.48609,29.41165,6.75,46.0625c4.10803,30.21415,1.20796,54.93611,10.59375,84.21875c9.09558,18.52318,32.64675,35.19557,53.625,29.625c18.93797-7.56936,24.08768-28.87999,24.53125-47.6875.72605-15.38201-15.61084-67.25528-27.0625-95.3125c12.48878,2.7386,25.58545,3.58314,36.46875,10.78125c23.71385,30.0533,31.68505,71.37898,23.8125,108.65625-4.70725,30.79774-28.34016,60.12322-60.28125,64.46875-42.15396,5.05946-82.76153-26.99545-92.6875-67.21875-1.2023-10.18178-2.12356-20.39299-2.9375-30.625-23.11538,39.99581-52.44584,42.50001-74.28125,42.5-23.87586-.00001-72.59935-27.86284-61.65625-73.625c31.25839,11.03236,70.98718,50.09783,134.15625,7.28125-2.08838-28.82067-4.31599-57.61392-10.40625-85.90625-.15624-.98958-.3125-1.97917-.46875-2.96875Zm75.84375,232.4375c.10372-.00508.20857.00378.3125,0c.10558-.00384.20671.00251.3125,0c16.65142-.39452,35.82281,15.60456,24.90625,32.53125-10.3715,16.08153-30.82215,50.73358-50.71875,71.625-1.24431,1.30653-2.63968,2.68464-4.15625,4.125c14.48002,10.24472,29.26166,20.04126,39.5,26.6875-13.18975,7.07255-48.47567,8.55685-73.71875,8.65625c12.41619-16.10239,25.40599-26.97384,34.21875-35.34375-6.25211-4.42341-12.44529-8.93748-18.1875-13.3125-.95022-.72398-1.86602-1.4517-2.75-2.21875-.02451-.02331-.0693-.0704-.09375-.09375-.01087-.00554-.05141-.02603-.0625-.03125-.00564-.00566-.02565-.02553-.03125-.03125-.00648-.00641-.02702-.027-.03125-.03125.00007-.0028-.00028-.02788,0-.03125-.00423-.00426-.02477-.02484-.03125-.03125-.02988-.02359-.09518-.07012-.125-.09375-.02096-.0186-.04158-.04387-.0625-.0625-.11299-.10011-.23184-.18045-.34375-.28125-.06715-.06048-.12074-.12678-.1875-.1875-.00287-.00261-.02483-.02474-.03125-.03125-.0206-.0208-.04194-.04167-.0625-.0625-.00537-.00522-.02555-.026-.03125-.03125-.00356.00015-.0284-.00004-.03125,0-.00557-.00567-.02581-.02549-.03125-.03125-.04211-.03884-.08305-.08606-.125-.125-.02206-.02036-.04048-.04211-.0625-.0625-.03397-.03164-.05988-.06205-.09375-.09375-.00559-.00573-.0256-.02559-.03125-.03125-.00339.00029-.02845-.00008-.03125,0-.00565-.00566-.02566-.02552-.03125-.03125-.00649-.00641-.02701-.02699-.03125-.03125.00008-.0028-.00029-.02788,0-.03125-.00424-.00425-.02476-.02484-.03125-.03125-.00551-.00565-.02569-.02567-.03125-.03125-.01105-.0054-.05146-.02585-.0625-.03125-.00556-.00558-.02574-.02561-.03125-.03125-.00578-.00543-.02559-.02567-.03125-.03125.00005-.00286-.00014-.02769,0-.03125-.00557-.00527-.02506-.02602-.03125-.03125-.02223-.01561-.07154-.04688-.09375-.0625-.00618-.00524-.0257-.02597-.03125-.03125-.01113-.01067-.02013-.02058-.03125-.03125-.00608-.0058-.02488-.02584-.03125-.03125-.01085-.00529-.05157-.02607-.0625-.03125-.00546-.00552-.02582-.02569-.03125-.03125-.00635-.00542-.02519-.02543-.03125-.03125-.00343-.00358-.0279-.02752-.03125-.03125-.02583-.03173-.068-.09323-.09375-.125-.00333-.00374-.02784-.02766-.03125-.03125-.00706-.0001-.02963-.00032-.03125,0-.00277-.00295-.02856-.02816-.03125-.03125-.00556-.0054-.02573-.02578-.03125-.03125-.00518-.01095-.02598-.05172-.03125-.0625-.00269-.0031-.02849-.02829-.03125-.03125-.00356.00014-.0284-.00005-.03125,0-.00557-.00566-.0258-.02547-.03125-.03125-.00637-.00629-.02708-.02708-.03125-.03125-.00542-.01105-.02583-.05145-.03125-.0625-.00417-.00417-.02488-.02495-.03125-.03125-.02122-.02089-.04133-.04158-.0625-.0625-.03263-.03246-.06122-.06123-.09375-.09375-.00641-.00649-.02701-.02701-.03125-.03125-.00338.00029-.02845-.00008-.03125,0-.00424-.00424-.02484-.02476-.03125-.03125s-.02701-.027-.03125-.03125c.00008-.0028-.0003-.02788,0-.03125-.00424-.00425-.02476-.02484-.03125-.03125-.0063-.00638-.02707-.02707-.03125-.03125-.01104-.00541-.05146-.02584-.0625-.03125-.00418-.00418-.02495-.02487-.03125-.03125-.00577-.00544-.02559-.02568-.03125-.03125.00005-.00286-.00014-.02769,0-.03125-.00588-.00593-.02495-.0258-.03125-.03125-.01082-.0053-.05156-.02608-.0625-.03125-.00547-.00552-.02583-.02568-.03125-.03125-.00314-.00273-.02821-.02841-.03125-.03125.00002-.00286.00006-.02771,0-.03125-.1768-.17973-.35742-.34971-.53125-.53125-.03496-.03674-.05891-.05693-.09375-.09375-.02039-.0214-.04215-.04108-.0625-.0625-.02897-.03072-.06487-.06298-.09375-.09375-.03043-.03219-.06341-.06151-.09375-.09375-.02077-.02223-.04177-.04024-.0625-.0625-.02371-.02936-.07009-.0956-.09375-.125-.01053-.01043-.05198-.05207-.0625-.0625-.04017-.04316-.08499-.08174-.125-.125-.00513-.00559-.026-.02623-.03125-.03125-.1099-.11902-.20382-.224-.3125-.34375-.0406-.04503-.08457-.07987-.125-.125-.00501-.01077-.02625-.05173-.03125-.0625-.04036-.04517-.0848-.07973-.125-.125-.07832-.08752-.14107-.1621-.21875-.25-.01995-.02272-.04259-.03975-.0625-.0625-.02338-.02956-.07042-.0954-.09375-.125-.01984-.02279-.04271-.03969-.0625-.0625-.09158-.10477-.15931-.2072-.25-.3125-.00641-.00626-.02822-.02807-.03125-.03125-.02673-.02624-.06707-.06748-.09375-.09375-.00302-.00318-.02484-.025-.03125-.03125-.00504-.01075-.02622-.05175-.03125-.0625-.03899-.04598-.08617-.07892-.125-.125-.00579-.0055-.02559-.0257-.03125-.03125.00005-.00285-.00014-.02768,0-.03125-.02289-.02429-.07091-.06943-.09375-.09375-.0057-.00558-.02556-.02559-.03125-.03125-.00534-.0112-.02585-.05175-.03125-.0625-.02285-.02431-.07095-.06941-.09375-.09375-.00287-.00281-.02768-.02783-.03125-.03125-.00517-.01098-.02566-.0515-.03125-.0625-.01077-.0107-.05173-.05179-.0625-.0625-.02379-.03063-.07003-.09433-.09375-.125-.05282-.06447-.10373-.12286-.15625-.1875-.00533-.0052-.02592-.02604-.03125-.03125-.09127-.1125-.19089-.23072-.28125-.34375-.00003-.00674.00005-.0277,0-.03125-.03745-.04688-.08771-.07803-.125-.125-.09055-.11367-.19166-.22954-.28125-.34375.00003-.00673-.00006-.02771,0-.03125c22.59928-22.84186,28.95381-53.16351,41.4375-75.25c3.62247-6.40899,9.71577-9.33606,16.25-9.65625Zm-152.21875,5.25c25.25425,1.20296,49.62447,2.82652,61.0625,11.625c14.79234,11.37871,15.52308,41.26306,30.34375,63.75-13.80287,14.97905-27.74804,29.82442-43.0625,43.21875-13.94481,13.57844-33.03638,22.25245-52.78125,21.90625-10.95259-.95737-24.53045.38278-32.21875-9.03125-6.54495-13.62206-.13449-28.33744,3.90625-41.9375c18.79582,16.63295,65.23543,19.32958,69.28125-42.125-9.51355,11.28264-45.35974,26.18684-69.9375,3.09375c10.25089-17.12494,21.93985-33.74647,33.40625-50.5Zm236.96875,67.6875c18.3008,17.91161,27.12242,45.26663,27.90625,78.1875.86196,36.20139-3.66743,43.35995-40.84375,85.40625-19.69138-8.61764-39.24351-16.34898-51.625-18.28125-.06385-10.77242.58729-26.06684,2.9375-47.21875c2.93787-26.44069,11.42978-46.86162,19.28125-60.78125c16.08589,23.2516,27.10435,54.62848,13.53125,94.59375c26.01938-30.3559,34.65801-50.87304,8.09375-116.28125c7.37976-7.1859,14.87682-12.2626,20.71875-15.625Zm-217.125,85.53125c15.15501,17.97331,20.87763,41.70984,21.4375,59.59375-14.96396-7.29747-30.24665-14.5896-46.34375-18.9375l.75-37.375c8.22354.08303,16.33834-1.04872,24.15625-3.28125Zm141.25,1.96875l-8.3125,62.46875c-12.23598,4.79204-31.65044,10.49659-51,13.96875-7.33355-.28345-14.67257-.56786-22-.84375-8.73672-2.21811-16.5653-6.8403-24.53125-11.125c3.65855-25.04177,11.09164-44.90164,19.96875-60.90625l85.875-3.5625Zm-179.6875,52.34375l2.03125.03125c24.10167,5.58577,46.16312,16.99837,68.1875,28.28125.89909.70373,1.51613,1.1863,1.78125,1.375.00004-.00288-.00012-.02759,0-.03125.00893-.13098.02213-.27552.03125-.40625c6.06836,3.10581,12.13711,6.18599,18.25,9.125.11192.00886.23182.02247.34375.03125-.67606,11.33822-2.37449,29.8492-6.59375,49.46875-4.82334,22.42854-12.95894,44.33417-17.59375,55.90625-14.36834,1.58302-28.37002,6.89495-42.59375,10.0625-11.55011,1.02059-22.7428,7.08406-34.5625,5.28125-15.29691-8.26695-23.2327-25.55684-30.8125-40.71875-4.67841-12.60854-14.77145-23.54478-14.84375-37.5c3.16731-10.26547,15.41525-12.60307,24.34375-15.5c7.08199.0306,10.98395-11.31383,3.71875-14.28125-26.56609-1.73183-53.33065,1.13407-79.96875-.15625-8.76789-1.51416-20.48335,2.06084-26.65625-5.8125-1.942-11.81635,8.4745-22.02695,18.625-26.40625c38.01666-9.86443,77.18997-15.23837,116.3125-18.75Zm155.46875,25.4375c1.18668.04346,2.37577.08207,3.5625.125-1.19018-.04313-2.37237-.08134-3.5625-.125Zm37.125,1.21875c.12562.00374.24938.02752.375.03125-.12513-.00372-.24987.00373-.375,0-.00201-.00956.00203-.02157,0-.03125Zm-120.53125,3.09375c.00005.00351-.00003.02453,0,.03125.00285-.00003.02785.00029.03125,0c.00029-.00351-.00002-.02837,0-.03125-.00171.00028-.02422.00008-.03125,0Zm31.125,9.53125c34.76894,2.18661,69.73784,2.36116,104.5625,3.9375c3.51226,22.35666,3.97163,45.20365,3.25,67.84375.15385,27.99349-7.1912,58.83406-30.21875,76.71875-33.66541-12.05535-66.79006-26.7072-100.1875-40.15625c4.73946-10.29479,13.05308-30.29228,17.875-53.4375c4.49469-21.57455,4.96235-42.55443,4.71875-54.90625Zm145.15625,85.4375c.06199-.00371.12552.00298.1875,0c.09406-.00453.18724.00285.28125,0c2.04495-.06198,4.05858.28809,6,1.0625c9.55774,3.81251,13.36025,16.86223,8.46875,29.125s-16.62974,19.12498-26.1875,15.3125-13.329-16.86223-8.4375-29.125c3.82215-9.58189,11.8145-15.90416,19.6875-16.375ZM211.73694,739.32216c.06954.1098.14896.23412.21875.34375-.06966-.1094-.14934-.23417-.21875-.34375Zm268.21875.96875c-.04554.1895-.10983.3732-.15625.5625.04698-.19133.11018-.37097.15625-.5625Zm-267.03125.875c.10988.16838.23324.33206.34375.5-.10758-.1635-.23677-.33608-.34375-.5Zm266.75.25c-.04731.18909-.10805.37362-.15625.5625.04878-.1909.10838-.37138.15625-.5625Zm-264.90625,2.53125c.11345.16587.22963.30336.34375.46875-.11325-.16411-.23116-.30417-.34375-.46875Zm4.4375,6.09375c.11339.14783.19846.29015.3125.4375-.11085-.14323-.20226-.29382-.3125-.4375Zm104.28125,2.90625c-.65469.1782-1.31387.35404-1.96875.53125s-1.31367.35505-1.96875.53125c.65508-.1762,1.31387-.35404,1.96875-.53125s1.31406-.35305,1.96875-.53125Zm-101.84375.1875c.17707.21651.35263.44089.53125.65625-.17676-.21307-.356-.44205-.53125-.65625Zm1.875,2.25c.07055.0821.14796.16808.21875.25-.0716-.08285-.1474-.16696-.21875-.25Zm90.15625.1875c-.65573.17296-1.31278.35943-1.96875.53125.65597-.17182,1.31302-.35829,1.96875-.53125Zm-89.625.4375c.15632.17936.31125.35277.46875.53125-.15464-.17527-.31524-.35514-.46875-.53125Zm84.6875.84375c-.65634.17004-1.31216.36243-1.96875.53125.65659-.16882,1.31241-.36121,1.96875-.53125Zm-8.875,2.28125c-.65756.16428-1.31089.30584-1.96875.46875.65786-.16291,1.31119-.30447,1.96875-.46875Zm173.75.25c-.05241.12107-.1034.2229-.15625.34375.04831-.11047.1083-.2331.15625-.34375Zm-244.4375,1.90625c.07075.05995.14752.09684.21875.15625-.07123-.05941-.148-.0963-.21875-.15625Zm.75.59375c.03621.02903.08867.06486.125.09375-.04238-.03371-.08278-.05985-.125-.09375Zm.4375.34375c.03667.02848.08821.06541.125.09375-.04292-.03307-.08224-.0605-.125-.09375Zm1.46875,1.09375c.0762.05328.14213.10355.21875.15625.07049.04848.14791.10826.21875.15625-.07703-.05211-.14213-.10355-.21875-.15625s-.14255-.10297-.21875-.15625Zm.46875.3125c.07703.05211.14131.10473.21875.15625.04517.03006.07969.0639.125.09375-.03882-.02561-.08628-.06799-.125-.09375-.07125-.0474-.14785-.10835-.21875-.15625Zm47.59375.21875c-.92889.20935-1.85159.45026-2.78125.65625.92106-.20409,1.86095-.44886,2.78125-.65625Zm-45.71875.96875c.07372.04351.14472.11327.21875.15625-.08049-.04667-.13862-.10896-.21875-.15625Zm40.96875.125c-.66191.14484-1.33769.26319-2,.40625.66232-.14306,1.33809-.26141,2-.40625Zm-39.5.6875c.11675.06179.22634.15826.34375.21875-.12406-.06382-.22042-.15348-.34375-.21875Zm34.53125.375c-.66294.14034-1.33663.26776-2,.40625.66337-.13849,1.33706-.26591,2-.40625Zm-33.53125.15625c.1169.05728.22625.10026.34375.15625-.11754-.05589-.22681-.09906-.34375-.15625Zm1.125.53125c.08483.03792.16489.05651.25.09375-.08511-.03724-.16517-.05583-.25-.09375Zm.5.21875c.08539.03656.16434.05788.25.09375-.08566-.03587-.16461-.05719-.25-.09375Zm26.9375.125c-.66403.13565-1.33551.27254-2,.40625.66449-.13371,1.33597-.2706,2-.40625Zm-25.78125.34375c.08655.03345.19445.061.28125.09375-.0868-.03275-.1947-.0603-.28125-.09375Zm1.3125.46875c.08016.02732.16966.06703.25.09375-.08793-.02918-.16228-.06385-.25-.09375Zm19.46875.1875c-.07189.02546-.14674.06894-.21875.09375.08025-.02757.13864-.06537.21875-.09375Zm-17.75.34375c.08902.02514.19205.06936.28125.09375-.0892-.02439-.19223-.06861-.28125-.09375Zm1.21875.3125c.21583.05228.43955.10841.65625.15625-.2254-.04957-.43179-.10188-.65625-.15625Zm13.96875.09375c-.27147.06665-.53994.12945-.8125.1875.27256-.05805.54103-.12085.8125-.1875Zm-12.34375.28125c.09063.0171.1905.01494.28125.03125-.09075-.01631-.19062-.01415-.28125-.03125Zm10.71875.0625c.04558-.00826.07944.00849.125,0-.08201.01529-.16792.01672-.25.03125.04561-.00802.07942-.02299.125-.03125Zm-10.1875.03125c.09086.01552.19028.01652.28125.03125-.09097-.01473-.19039-.01573-.28125-.03125Zm9.625.0625c.04567-.00733.1106.00756.15625,0-.0913.01512-.18986.01706-.28125.03125.04569-.00709.07933-.02392.125-.03125Zm-8.78125.0625c.09117.01312.15873.01894.25.03125-.08249-.01113-.16759-.01946-.25-.03125Zm8.375,0c.03659-.0053.08843.00545.125,0-.09143.01372-.1585.01845-.25.03125.04575-.0064.07927-.02462.125-.03125Zm-.6875.09375c.04582-.00548.11045.00571.15625,0-.09161.01142-.18958.02075-.28125.03125s-.18952.02166-.28125.03125c.09172-.00959.18958-.02075.28125-.03125.04583-.00525.07918-.02577.125-.03125Zm-5.625.125c.09173.00697.15822.02512.25.03125-.08295-.00554-.16709-.02502-.25-.03125Zm.53125.03125c.09182.00529.18939.0268.28125.03125-.09186-.00445-.18943-.02596-.28125-.03125Zm3.3125,0c.04596-.00255.07905.00277.125,0-.08272.00499-.16726.02698-.25.03125.04597-.00233.07904-.0287.125-.03125Zm-2.625.03125c.09191.00318.18931.02893.28125.03125-.09194-.00232-.18934-.02807-.28125-.03125Zm1.8125,0c.04599-.00122.07902.00144.125,0-.09197.00289-.18927.02924-.28125.03125.04599-.001.11026-.03003.15625-.03125Zm215.4375,2.1875c-.06904.11304-.118.23103-.1875.34375.06753-.10952.12041-.23393.1875-.34375Zm-6.03125,8.6875c-.11858.15021-.22415.31938-.34375.46875.12008-.15.22469-.31792.34375-.46875Zm-.875,1.125c-.11186.13678-.23102.27019-.34375.40625.11529-.1392.22937-.26629.34375-.40625Z" fill-rule="evenodd"/></g></svg>
