<svg id="e5JoZ7TlQaz1" xmlns="http://www.w3.org/2000/svg" xmlns:xlink="http://www.w3.org/1999/xlink" viewBox="0 0 793.688 1122.52" shape-rendering="geometricPrecision" text-rendering="geometricPrecision" project-id="dc9c0a912c3a4aea85bd65e4e7b59d03" export-id="60a1a8f9303f4d979a22efaaa8ab0864" cached="false"><path d="M359.80464,85.833343c-96.6687,1.492708-183.8311,49.611537-176.9062,73.156247c6.7313,22.88652,41.7919,89.56036,37.4062,165.53125-10.6578,5.21273-60.7195,31.96252-55.6875,72.21875c3.5668,28.53371,21.9551,43.57003,49.1875,50c1.7794,12.28598,4.1929,29.13986,6.625,46.53125-9.8716,1.84402-22.2114,4.71328-26.9687,8.28125-8.4414,6.33106-18.9915,24.62337-37.2813,61.90625-17.5368,35.74822-40.1103,48.5433-38,56.28125s33.7813,30.24997,33.7813,30.25-64.740196,22.49544-85.843796,32.34375c-21.1035,9.84831-47.4044,30.48837-16.1875,45.75c31.6553,15.47591,30.7936,9.77099,78.812496,49.21875c37.9478,31.17424,54.9395,53.75075,64,64.71875c13.3656,16.17935,25.3353-12.65789,43.625-42.90625c14.4358-23.87458,32.3503-38.69042,18.2813-66.125-11.7854-22.98156-31.6416-66.12856-29.5313-92.15625c2.0445-25.21431,7.3867-35.24147,7.7188-35.84375.2986.17227,9.8651,5.72673,11.25,13.34375c1.4069,7.73796.315,41.16021,8.4375,63.3125c7.738,21.10352,25.3545,41.50521,35.9062,30.25c10.5518-11.25521,42.8825-67.53937,60.4688-83.71875s33.0606-27.42547,37.2812-19.6875c4.2207,7.73796-30.9485,48.54522-74.5625,119.59375s-89.3372,150.51695-103.4062,181.46875-8.432,30.26855,13.375,23.9375c23.2444-13.51801,278.1372-78.04514,298.9687-80.90625c21.3213-2.92836,30.9453-13.36586,14.0625-33.0625s-115.5623-123.04371-123.0937-142.09375c-11.9587-30.24838-9.8395-32.36949,14.7812-10.5625c14.1692,12.54988,28.8145,29.54167,24.5938,7.03125s-13.3585-74.54069-15.4688-87.90625c-2.0817-13.18371-1.4114-23.21679,9.8438-27.4375s16.6289,2.39035,19.7187,14.75c4.2207,16.88281,14.0606,48.53877,18.2813,66.125c2.9732,12.38825,3.5254,17.5957,16.1875,13.375s61.8991-25.30989,77.375-30.9375s24.6224-7.03645,30.25,4.21875-11.9642,16.87239-21.8125,22.5-85.8385,37.99677-97.0938,45.03125-15.4758,12.64847,0,29.53125s50.6498,52.05599,64.7188,66.125s16.6967,13.34673,42.2187,10.5625c38.6898-4.2207,91.4649-51.36911,99.9063-64.03125s11.2565-25.30857-2.8125-33.75-39.403-28.15301-46.4375-35.1875-18.2845-9.83722-11.25-23.90625s1.3809-13.36916-11.2813-26.03125c-12.6621-12.66211-36.0713-38.0875-39.375-69.65625-6.3311-60.49676-23.2873-42.63182-15.125-72.78125c9.4604-34.94371,24.7231-31.03814,35.875-29c5.674,2.31336,10.0488,1.64054,13-3.71875c14.4121-26.17179,12.385-73.03502-66.0937-94.3125-3.2273-85.003,24.6876-135.81556,50.625-205.375-98.4831-50.648441-137.7709-56.249997-237.75-56.249997-1.1541.000001-2.3171-.013405-3.4688,0-.3793.004417-.7459-.005854-1.125,0Zm186.0313,67.687497c.0715-.00312.1475.00288.2187,0c.0716-.0029.1475.00266.2188,0c.0715-.00267.1475.00243.2187,0c.1437-.00489.295.00393.4375,0c.1437-.00397.295.00301.4375,0c10.207-.21576,17.4926,2.00694,18.1875,3.28125.0058.01136.0235.04638.0313.0625c1.319,3.78105-13.1011,34.37745-23.7188,70.1875s-16.3883,74.0306-21.3125,75.4375c-9.8483,2.81379-14.0559-7.03061-28.125-8.4375s-19.7148,7.03516-28.1562-1.40625-4.2305-40.81834,21.0937-95.6875c15.6882-33.99099,42.2379-42.64082,60.4688-43.4375Zm-238.0313,115.4375c.1596-.00356.311.00305.4688,0c.1629-.00315.339.00262.5,0c.1662-.00269.3358.00213.5,0c.3503-.00454.6902.00191,1.0312,0c7.9752-.04468,13.3913.64904,15.75,2.9375c4.2214,4.10295,4.2285,15.79058,5.25,36.1875c1.2831,25.74296.4216,37.43335-4.5625,42.5625-4.6161,4.75053-12.8547,4.44009-33,4.9375-19.6478.49741-27.836.72738-32.375-3.625s-5.6562-16.04608-5.6562-36.9375-1.108-35.17514,2.25-39.84375c3.239-4.50321,15.6738-4.51738,32.5625-5.40625c6.5449-.34446,12.3344-.70224,17.2812-.8125Zm-16.5,18.65625c-.4178.01848-.8393.05461-1.2812.0625-6.7141.11777-13.4349,4.22194-12.9375,22.875s.7508,25.875,12.9375,25.875c14.9225,0,16.4024-6.96654,15.6562-30.59375-.5378-16.85249-1.536-18.2889-12.3437-18.21875-.254.00166-.5166-.0045-.7813,0-.1984.00339-.3893-.00524-.5937,0-.1533.00393-.311-.00566-.4688,0-.0591.00212-.1278-.00264-.1875,0Zm179.9063,36.8125c.0367-.0031.0878.00218.125,0c.0062-.00036.0248.00016.0312,0c.0397-.00004.0889.00119.125,0c.1928-.00631.3708.00191.5625,0c24.1631-.24078,41.8075,8.2584,41.4688,14.625-.6026,11.32677-54.3484,2.27615-128.75,42.9375-107.0887,58.52519-123.7813,45.70607-123.7813,39.375s19.6636-11.34256,47.125-26.03125c30.2484-16.17938,78.0896-41.49088,121-61.1875c14.5829-6.69378,29.0382-9.41527,41.7813-9.6875.1088-.00233.2025-.02196.3125-.03125Zm11.7812,67.9375c13.4774-.46751,27.6165,6.10525,50.9375,16.34375c28.8415,12.66211,22.4854,24.61653,20.375,42.90625-2.1103,18.28971-12.6358,36.57781-23.1875,37.28125s-5.6243-10.54134-7.0312-22.5-5.6344-28.84374-19-28.84375-12.6709,18.29003-14.7813,33.0625-12.651,29.52735-23.9062,37.96875c-11.009,8.25675-32.1163,17.86509-33.7116,18.28125c1.4674-1.55276,19.9335-62.99849,25.2468-80.87044c7.738-26.02767-1.3867-47.14291,15.496-52.06706c3.2315-.94251,6.3722-1.45183,9.5625-1.5625Zm-45,3.59375c.0028.00039.0287-.0001.0313,0c4.6857,21.09896,7.3279,63.05117-43.0313,154.40625-26.3685,47.83433-49.5953,50.02197-79.8437,53.1875-63.3761,6.6324-75.5923-19.09665-70.5625-37.96875c9.2618-7.25735,20.0987-14.0625,26.9375-14.0625c18.2898.00002,26.7402,11.25131,47.8437,8.4375s38-29.5625,38-29.5625-23.9315,4.22592-36.5937-11.25c-10.1722-12.43274-20.2258-19.3376-33.1563-22.34375-1.1679-7.58868-1.8502-16.55423-.5937-24.09375c1.3319-7.99108,4.2454-17.54986,6.9375-25.40625c2.8873-.50261,5.749-1.05357,8.5937-1.65625.0027.00027.0287-.00007.0313,0c7.5608.37231,10.144,3.52915,16.0625,10.1875c11.2552,12.6621,23.223,21.09701,47.8437,14.0625c20.3028-5.80083,33.0619-22.49153,34.4688-40.78125.8079-10.50231,5.0953-18.00894,12.0625-23.8125.0055-.00576.0257-.02563.0312-.03125.0111.00027.0515-.00027.0625,0c.0056-.00562.0258-.02549.0313-.03125.0025-.00277.0289-.02799.0312-.03125c8.2864-3.34562,16.542-6.47765,24.8125-9.25Zm-200.1562,54.21875c9.1807.61462,18.9687.62038,29.2187.125l-8.25,49.53125c-5.9656,2.52959-12.3776,5.8253-18.5,9.28125-1.6776-22.04486-2.2715-43.89506-2.4687-58.9375Z" transform="translate(28.029228 49.864908)" fill="#fff" fill-rule="evenodd" stroke="#f8f6f6"/></svg>
