#define 06013c50e48f4b89d69c4dc30f4cf322d3DpI3b4bs93bVYU_width 32
#define 06013c50e48f4b89d69c4dc30f4cf322d3DpI3b4bs93bVYU_height 32
static char 06013c50e48f4b89d69c4dc30f4cf322d3DpI3b4bs93bVYU_bits[] = {
  0x00, 0x00, 0x00, 0x00, 0x00, 0x00, 0x00, 0x00, 0x00, 0x00, 0x00, 0x00, 
  0x00, 0x80, 0x01, 0x00, 0x00, 0x80, 0x01, 0x00, 0x00, 0x80, 0x01, 0x00, 
  0x00, 0x80, 0x01, 0x00, 0x00, 0x80, 0x01, 0x00, 0x00, 0x80, 0x01, 0x00, 
  0x00, 0x80, 0x01, 0x00, 0x00, 0xD0, 0x0B, 0x00, 0x00, 0x80, 0x01, 0x00, 
  0x00, 0x80, 0x01, 0x00, 0x00, 0x00, 0x01, 0x00, 0x00, 0x00, 0x01, 0x00, 
  0x00, 0x00, 0x01, 0x00, 0x00, 0x01, 0x01, 0x00, 0x00, 0x87, 0xE3, 0x00, 
  0x00, 0x9F, 0xFF, 0x00, 0x80, 0xBF, 0xFF, 0x01, 0x80, 0xFF, 0xFF, 0x01, 
  0xC0, 0xE1, 0x87, 0x03, 0x00, 0x80, 0x01, 0x00, 0x00, 0xC0, 0x03, 0x00, 
  0x00, 0x80, 0x01, 0x00, 0x00, 0x80, 0x01, 0x00, 0x00, 0x80, 0x01, 0x00, 
  0x00, 0x80, 0x01, 0x00, 0x00, 0x00, 0x00, 0x00, 0x00, 0x00, 0x00, 0x00, 
  0x00, 0x00, 0x00, 0x00, 0x00, 0x00, 0x00, 0x00, };
