<svg id="eB8Vrn9lIW51" xmlns="http://www.w3.org/2000/svg" xmlns:xlink="http://www.w3.org/1999/xlink" viewBox="0 0 793.688 1122.52" shape-rendering="geometricPrecision" text-rendering="geometricPrecision" project-id="dc9c0a912c3a4aea85bd65e4e7b59d03" export-id="7697b3c3ee5a4bafb797b03afef2ef67" cached="false"><path d="M482.25091,133.1484c-20.45613,1.95105-47.61693,14.10835-70.40625,64.625-.58276-1.20802-19.5846-39.90983-64.53125-57.5625c1.35541,1.90929,15.33426,24.28822-15.03125,96.40625c0,0-16.93051-39.81137-63.6875-69.65625-14.11784,75.8834-18.83759,108.71979,3.875,181.8125-3.61593,17.41272-4.61262,33.95532,6.09375,46c8.72946,9.82067,21.02556,20.39864,19.53125,27.03125-91.15982,30.86361-156.84375,117.1864-156.84375,218.71875c0,127.40183,103.41066,230.78123,230.8125,230.78125s230.78126-103.37939,230.78125-230.78125c.00002-101.05002-65.02497-187.04568-155.5-218.28125-.84568-11.54219,2.2615-17.36893,17.25-24.46875c18.90177-8.95347,11.94357-46.75472-10.9375-59.6875-2.24741-1.27028-5.68382-2.6935-10.0625-4.1875.34367-15.92123,12.65773-31.05217,24.96875-42.59375c15.91727-14.92244,19.88581-56.68165,9.9375-73.59375s-11.26418-38.16473,4-84.5625c-.08003.00734-.16977-.00765-.25,0Zm-108.1875,53.71875c22.88109,30.83971,17.90063,79.56767,28.84375,80.5625s16.92603-55.71267,44.78125-78.59375c15.91726,40.78801,25.85005,67.66051-3,92.53125s-26.17353,40.76668-26.875,58.6875c-.66428,16.97034-1.96267,25.89051-24.84375,28.875s-41.80193-28.86801-45.78125-75.625s30.85432-86.54091,26.875-106.4375Zm-84.5625,22.875c-.00001,0,14.9267,23.88961,24.875,50.75s4.9728,55.7012,35.8125,106.4375c-.00353.00292-.02823.02856-.03125.03125-.00455.00535-.02569.02543-.03125.03125-.00587.00571-.02517.02645-.03125.03125-.01563.00805-.05021.02527-.0625.03125-2.1765.96834-26.04423,1.4459-52.59375-27-27.85522-29.84489-28.82894-71.61757-7.9375-130.3125Zm55.1875,239.78125c-73.61739,87.54498-4.94452,92.35607,50.25,73.09375c55.04156-19.20895,175.5724,8.95218,189.5,101.96875-39.29573-41.78285-120.17715-58.57435-195.46875,19.40625-69.63807,72.12513-169.61931,136.00981-211.40625,32.84375-29.81363-73.60561,14.41867-214.37972,167.125-227.3125ZM508.84466,755.92965c-21.38885,72.62254-110.42748,99.96776-168.625,57.6875c38.79834-4.97416,124.35509-34.30898,168.625-57.6875ZM228.81341,773.3359c20.39399,9.94828,37.78338,21.86376,50.21875,43.75-22.38368-3.48194-43.25494-20.86893-50.21875-43.75Z" transform="translate(24.796211 57.125855)"/></svg>
