<svg id="e9MtuZTyAk81" xmlns="http://www.w3.org/2000/svg" xmlns:xlink="http://www.w3.org/1999/xlink" viewBox="0 0 793.688 1122.52" shape-rendering="geometricPrecision" text-rendering="geometricPrecision" project-id="dc9c0a912c3a4aea85bd65e4e7b59d03" export-id="922e9cb92f234c4986bb1a2a3e69a01e" cached="false"><g transform="translate(39.597326 138.135252)"><path d="M91.561596,99.297669c-.00278.002864-.02799.027752-.03125.03125-4.97415.994831-18.92221,87.535511-9.96875,112.406251c4.02647,11.18461,12.695,20.75391,21.000004,27.90625-38.710934,69.43467-14.275924,127.86843,16.8125,152.15625c31.83453,24.87075,56.70909,53.70705,36.8125,87.53125s-39.31616,13.26509-43.78125,37.8125c-4.33315,23.82203,41.85027,68.42633,63.6875,66.65625c22.86158-1.85309,6.94716-45.77608,26.84375-44.78125l75.625,207.9375l45.75-6.96875-59.40625-184.6875c64.85422,6.56922,75.25498-11.15294,102.34375-12.4375c35.16116-1.66736,56.26367,12.65755,94.25,9.84375s43.63476-12.65104,90.0625-23.90625s53.46159,7.03385,68.93749,1.40625s23.74-25.80718,2.8125-80.21875c-21.1035-54.86914-35.8431-65.48709-53.46874-106.90625-21.43529-50.3716-3.06626-72.30971-25.34375-125.21875-18.24918-43.34182-29.07944-52.50154-37.03125-52.15625-.00589.00026-.02494.00002-.03125,0-.0132-.00041-.04884.00053-.0625,0-.00676-.00015-.02467-.00007-.03125,0-.00314.0002-.02495.00015-.03125,0-.00278-.00006-.02805.00013-.03125,0-.00278-.00006-.02797.00019-.03125,0c.00031.00185.0001.02426,0,.03125-.00328-.00018-.02847.00006-.03125,0-.00641-.00017-.02833-.00021-.03125,0-1.74749.12565-3.35818.71034-4.875,1.46875-8.44141,4.22071-35.16731,22.52995-78.78125,25.34375s-74.57291-11.2832-119.59375-7.0625-50.6673,29.5599-94.28125,35.1875c-22.35816,2.88493-38.79135,1.35343-49.5-.84375c4.23593-13.88519,7.03722-22.67436,3-35.9375-4.75131-15.60909-66.166654-85.035009-71.562504-84.593751-.00357-.000139-.0284.000005-.03125,0ZM110.4366,154.01642c15.91727,10.94313,31.828,29.86421,34.8125,39.8125s-5.96851,29.82801-11.9375,32.8125-27.8696-3.97864-32.84375-17.90625s1.01527-25.86869,9.96875-54.71875Zm386.25,43.28125c.00285.00006.02768-.00033.03125,0c.00282.00005.02784-.00033.03125,0c.00281.00004.02798-.00031.03125,0c.00271.00003.02828-.00026.03125,0c.00272-.00029.02869-.00002.03125,0c.00256.00013.02852.00013.03125,0c.01074.00008.05177-.00022.0625,0c.0065.00013.02863.00015.03125,0c.00524.00001.02602-.00021.03125,0c.01566.00089.04702.00034.0625,0c.00342-.00032.02512-.00012.03125,0c.026-.00022.06795-.00063.09375,0c.00657.00002.0245.0002.03125,0c4.39017-.13199,8.72436,1.40479,12.34375,3.8125c11.67596,9.24059,12.38012,26.88738,7.21875,39.8125-10.69692,20.39337-31.11679,33.06509-45.40625,50.75-6.08993,7.37142-11.3956,18.57556-22.09375,19.3125-7.64392-.92405-7.0019-10.89833-5.15625-16.3125c9.23764-25.60617,19.99999-50.9997,31-76c3.75492-9.48028,9.83837-20.91587,21.4375-21.3125.00295.00008.02856-.00001.03125,0c.00319.0001.0285-.00001.03125,0c.00344.00012.02843-.00002.03125,0c.00511-.01092.02596-.05135.03125-.0625ZM179.96785,245.07892c.01632-.00022.05093-.0001.0625,0c.03776.00128.08265.00309.125,0c.06829-.00497.14986.00443.21875,0c.06943-.00447.14872.00393.21875,0c.07058-.00396.14756.00342.21875,0c.07175-.00344.14639.0029.21875,0c.14702-.00589.28798.00369.4375,0c5.09993-.12602,11.64007,1.01512,18.84375,2.40625c20.60611,3.97932,17.79819,19.61718,48.75,36.5s63.3164,21.08658,54.875,36.5625-34.561.66535-74.5625-11.25c-26.12286-7.78128-48.01088-20.7584-56.28125-43.59375-5.3816-14.85912-1.65442-19.92991,6.875-20.625Zm-27.75,12.40625l82.5625,255.6875-23.875,8.9375-84.5625-255.65625l25.875-8.96875Zm-38.8125,20.90625l34.8125,107.4375c-36.80869-22.88108-57.693584-45.75807-34.8125-107.4375Zm255.6875,10.4375c13.92762,24.87074,62.17434,37.81158,65.65625,61.6875s-21.88556,32.31959-17.90625,51.71875s6.46002,10.05766,9.9375,26.375c6.46639,30.3423-53.72909,40.29295-55.71875,6.46875-1.23297-20.65234,12.95064-20.88489,9.46875-34.8125s-45.77844-21.91332-51.25-41.3125s20.91073-46.74651,39.8125-70.125Zm84.9375,111.03125c.00406-.00023.02741-.00005.03125,0c.01626.00025.05333.00039.0625,0c.00408-.0002.02741-.00005.03125,0c.01093.00077.05022.00045.0625,0c.0041-.00018.02742-.00004.03125,0c.01085.00066.05017.00037.0625,0c.00412-.00016.02743-.00003.03125,0c.01078.00055.05012.00029.0625,0c.11165-.00805.23104.00198.34375,0c.27821-.00488.52942.02854.8125.0625c15.60927.0656,30.52555,6.58477,45.34375,10.9375c21.5803,8.08909,44.215,12.96539,65.1875,22.40625c18.54134,8.2832,37.76834,22.80975,39.96874,44.5625-.0227,6.3355,2.6635,15.11249-2.875,19.90625-5.7739,2.48843-12.8398,1.57267-18.7812.0625-16.68127-8.27145-29.56218-22.52188-44.28129-33.75-16.32183-14.55281-35.83004-24.46847-55.5625-33.5-11.83295-6.45763-25.70764-10.86138-34.875-20.96875-3.47032-3.72837-.10007-9.08799,4.34375-9.71875Zm-118.65625,4.625c.08026-.00592.17107.0041.25,0c2.18681-.11365,3.84457.49336,4.875,1.90625c11.37164,15.59234-19.68164,33.76887-32.34375,60.5s-19.7142,70.34375-29.5625,70.34375c-9.43064.00001-20.4311-9.39493-26.625-22.15625l-4.3125-13.40625c-.74645-4.49406-.80787-9.10958,0-13.6875c3.79365-21.49736,67.25268-81.99001,87.71875-83.5Zm-159.28125,80.8125l9.9375,27.875c-9.94831,33.82421-8.96223,55.52963-35.8125,33.8125-33.8242-27.35782-13.83857-33.78836-1.125-43.03125c10.05616-7.31092,19.53878-13.18468,27-18.65625Z" fill="#fbf7f7" fill-rule="evenodd"/></g></svg>
