<svg id="eojKzfqsG5h1" xmlns="http://www.w3.org/2000/svg" xmlns:xlink="http://www.w3.org/1999/xlink" viewBox="0 0 793.688 1122.52" shape-rendering="geometricPrecision" text-rendering="geometricPrecision" project-id="dc9c0a912c3a4aea85bd65e4e7b59d03" export-id="22cc6fa5dba54384931aa6364061cfa1" cached="false"><g transform="translate(12.309507 63.389532)"><path d="M402.75042,90.812732c-11.0334.30622-24.2672,5.45878-39.7812,16.468748-75.41104-32.394868-89.09369,50.65282-57.0625,141.4375-34.89451,33.59663-53.37502,89.17055-53.37502,144.15625c0,85.11752-15.47558,118.88441-34.46875,132.25s-30.27377,38.69495-12.6875,56.28125c17.39892,17.39892,36.08358,11.2559,63.40625-13.28125-.3713,13.77416-.78125,29.1111-.78125,32.25c0,21.10352,1.40398,37.99089-27.4375,57.6875s-56.97167,13.35708-84.40625,18.28125-30.2679,40.80531-25.34375,56.28125-24.62044,63.32-34.468745,80.90625s2.82194,29.53127,16.187495,29.53125c8.23368,0,11.95605,7.75812,5.625,23.9375s2.82159,29.52861,50.65625,35.15625c46.17849,5.43277,104.10578,4.91796,179.37497-20.40625c60.4968,20.40007,203.2936,28.84964,244.0938,16.1875-46.4277-46.42774-166.6992-100.59115-276.4375-106.21875c0,0,33.7448-39.38897,45-42.90625s82.2978,24.60804,147.7187,61.1875s108.3399,82.32653,116.7813,85.84375s23.9251,4.20474,50.6562.6875c.0027.00286.0284.02795.0313.03125.0028.00011.0283.00008.0312,0c.0031-.0002.0249-.0001.0313,0c.0028.00013.0281-.00021.0312,0c.0084-.00815.0275-.02758.0313-.03125c1.1377-1.52679-10.5774-42.27264-64.875-102-56.2761-61.90366-61.9176-56.97882-71.0625-68.9375s20.4157-47.1139,33.7812-71.03125c10.9101-19.52326-9.5906-26.40937-41.5937-34.78125c20.9294-27.84123,24.9888-46.52648,21.5625-92.65625c15.0236-1.09117,25.6676-3.10106,46.0625-6.9375c33.3333-6.27023,27.9643-70.87448-7.0313-92.15626-20.1861-12.27579-44.3366-10.55925-59.8125-85.12499-12.3707-59.60446-46.1264-101.30814-94.6875-118.03125c15.016-72.60873,4.376-134.046638-34.6875-134.062498-.3513-.00015-.7065-.00988-1.0625,0Zm-5.2187,32.531248c.2041-.00821.3927-.00059.5937,0c23.7202.06926,26.4852,60.92524,19,103.5-10.0451,57.13588-31.2254,67.53239-33.1562,75.75-2.1497,9.14895,3.1701,48.29861,7.1875,65.09375c12.4433,2.99671,21.6875,14.23484,21.6875,27.59375c0,15.65065-12.6931,28.34374-28.3438,28.34374s-28.3437-12.69309-28.3437-28.34374c0-10.35525,5.5475-19.42661,13.8437-24.375c2.9007-16.27671.704-64.22529-5.625-73.71875-3.5172-5.27589-25.8525-26.90502-40.625-71.75s-21.2939-120.63852,39.9063-74.5625c14.233-19.15984,25.371-27.18926,33.875-27.53125Zm34.7812,127c25.1617,7.53601,46.8826,25.92526,58.7813,49.4375c22.2461,38.85655,16.6291,83.00632,33.125,123.65624c9.7869,27.15887,27.0548,37.04741,50.6875,49.9375c15.7902,8.6125,11.8765,32.10207-8.0938,23.81251-6.8902-2.86013-13.1672-5.83171-18.875-8.96875-9.0889-25.7525-30.6481-49.69412-54.5-69.75001-1.0287-4.02078-1.9238-8.17269-2.7187-12.4375-5.9083-34.54591-4.3398-77.39835-25.7813-106.87499-9.4614-13.39628-23.553-23.06907-39.1875-27.6875c2.409-7.05546,4.5989-14.12322,6.5625-21.125Zm-114.6875,27.4375c3.1893,7.00046,6.6434,13.96713,10.3438,20.875-4.9818,5.55453-9.1962,11.82621-12.375,18.78125-22.1104,42.64445-19.1675,92.17829-20.25,138.87499-.9726,25.20811-8.3756,70.58381-52.00002,105.06251-10.94359,8.6493-26.21174-6.96164-9.625-22.3125c19.62227-18.16018,39.39795-62.16816,39.84375-88.37501.20283-47.45332-.38093-97.44442,21.18747-140.87499c5.3936-12.29109,13.2839-23.0538,22.875-32.03125Zm99.3438,181.15624c.1693-.00496.3304.00426.5,0c.1703-.00428.3294.00357.5,0c.1713-.00358.3284.00286.5,0c.3458-.00577.6841.00281,1.0312,0c8.6528-.07013,17.6845.784,26.9688,2.875-36.2422,15.93993-50.8269,24.47612-49.75,30.93751.959,5.75401,26.1098,17.40549,61.4062,21.78125l3.5625,53.46875c-22.5719,4.21598-41.0927,16.82054-59.5,40.5625-.1784-.15173-.3532-.28553-.5312-.4375-54.3565-46.4019-68.9554-107.62043-64.0313-117.46875c3.2443-6.48851,36.1732-30.45337,79.3438-31.71876Zm98.125,55.28126c-4.0023,20.54863-5.9676,38.83262-7.25,54.71875-6.3054-1.0759-12.2981-1.81354-18.0313-2.21875-1.7896-15.66404-2.1532-35.36641-2.0937-50.5c8.1288-.06818,16.5105-.57497,25.0625-1.65625.7994-.10107,1.5708-.21916,2.3125-.34375Zm-221.75,81.90625c.0029.00001.0275-.00008.0312,0c.0029-.00011.0277.00025.0313,0c.0035.00322.0284.02843.0312.03125c0,.00284.0003.02799,0,.03125-.0071-.0028-.125-.03125-.125-.03125.0029-.00285.0277-.02788.0313-.03125Zm.125.125c1.8231.71668,121.5926,47.79075,125.7812,51.28125c4.2207,3.51725,46.4082,90.01204,42.1875,97.75s-29.5452,3.51725-33.0625,0-26.7314-78.77865-33.0625-84.40625-91.4508-32.3418-96.375-36.5625c-4.5779-3.92394-4.8808-26.09558-5.4687-28.0625Zm169.9375,8.71875l3.9375.8125c-1.4652-.22502-2.9623-.46277-4.4688-.6875l.5313-.125Zm12.7187,7.90625c.1217-.00483.2533.00425.375,0c.1227-.00428.2523.00369.375,0c.1238-.00372.2512.00313.375,0c.1248-.00316.2502.00257.375,0c.2538-.00521.496.00279.75,0c8.4733-.09305,17.1217,1.16448,25.4688,3.15625-1.955,12.31499-5.3548,20.55663-12.8438,24.4375-16.9197,8.76806-36.7686,3.29317-56.375-8.1875c11.2927-13.47073,26.0503-18.79331,41.5-19.40625Zm40.1875,30.40625c15.476,3.51726,26.7188,15.5,26.7188,15.5s-38.6875,56.26758-38.6875,85.8125c-16.8828,2.11037-30.9362,1.3903-33.75,2.09375c9.8483-56.27603,33.0566-87.93034,45.7187-103.40625ZM191.7192,707.75023c.00293-.00352.02856.00281.03125,0c.00341.00017.02844-.00006.03125,0c.01076.00008.0518-.00029.0625,0c.00265-.00016.02859-.00002.03125,0c.00265.00018.02474.00006.03125,0c.00283-.00016.0287-.00002.03125,0s.02847.00008.03125,0c.00398-.00016.02744-.00002.03125,0c.01112.00052.05016.00024.0625,0c.00629.00007.02811.00008.03125,0c.02637.00005.06739-.00028.09375,0c.00629-.00007.02539.00028.03125,0c.06253-.00295.12514.00161.1875,0c.24944-.00642.497.00203.75,0c21.08357-.16883,48.51342,2.30022,65.6875,6.59375c21.25471,5.31367,12.27051,16.57898,9.15625,28.125-3.74281,13.87641,4.19953,57.70574,11.9375,85.84375-37.28289,14.06901-90.02049,19.68846-147-16.1875c12.66211-26.02767,35.17415-62.61849,30.25-76.6875s-4.93002-24.60838,12.65625-26.71875c4.45437-.53452,9.8574-.85286,15.8125-.9375.00594.0001.02746.00033.03125,0c.00342.00014.02844-.00002.03125,0c.00268-.00285-.00293-.02773,0-.03125Zm336.71872,54.4375c.0361-.00381.0577.0036.0938,0c.0041-.00016.0274-.00005.0312,0c.0108.00066.0502.00042.0625,0c.0299-.00091.0951.00079.125,0c.03-.00086.0951.00074.125,0c.03-.00081.095.00068.125,0c.0279-.0021.0667-.00074.0938,0c.0361.00129.0877.00235.125,0c.0752-.00474.1433.00383.2187,0c.3116-.01581.622,0,.9375,0c10.096.00002,18.2813,8.18533,18.2813,18.28125s-8.1853,18.28125-18.2813,18.28125c-10.0959-.00002-18.2812-8.18533-18.2812-18.28125c0-9.44162,7.1581-17.30979,16.3437-18.28125Zm60.6875,51.34375c.0365-.0034.0885.00319.125,0c.03-.00086.0951.00073.125,0c.03-.0008.095.00068.125,0c.0279-.00209.0667-.00074.0938,0c.0361.00128.0877.00234.125,0c.0752-.00472.1433.00381.2187,0c.0761-.00384.1425.0029.2188,0c.2344-.00892.4821,0,.7187,0c10.096-.00001,18.2813,8.18533,18.2813,18.28125s-8.1853,18.3125-18.2813,18.3125c-10.0959.00002-18.2812-8.21658-18.2812-18.3125c0-9.51764,7.2393-17.4139,16.5312-18.28125Z" fill-rule="evenodd"/></g></svg>
