<svg id="eYMai1u9Usd1" xmlns="http://www.w3.org/2000/svg" xmlns:xlink="http://www.w3.org/1999/xlink" viewBox="0 0 793.688 1122.52" shape-rendering="geometricPrecision" text-rendering="geometricPrecision" project-id="dc9c0a912c3a4aea85bd65e4e7b59d03" export-id="71b609c1a7e14229afa74f445e3e7e62" cached="false"><g transform="translate(3.17993 60.80866)"><path d="M400.75782,134.82812c-.00005.00701-.00018.0295,0,.03125-.00281-.00002-.02782.00014-.03125,0-.0066-.00003-.02824.00005-.03125,0-26.58001.44695-55.00101,9.30597-77.09375,29.75l44.65625,46.3125c-7.0365,7.24925-11.5605,16.92811-12.21875,27.65625-43.79771,7.16873-86.13812,24.89033-110.90625,35.78125-4.9923-6.82322-13.02893-11.28124-22.125-11.28125-15.14389,0-27.4375,12.2936-27.4375,27.4375c0,6.86456,2.51845,13.15312,6.6875,17.96875-10.47495,16.36131-38.54254,60.79057-36.25,63.65625c2.80142,3.5018,25.82595,13.2715,48.9375,11.96875.85635,19.37823-.30872,57.58-10.9375,96.34375-11.95866,43.61394-7.03972,83.00518,11.25,139.28125c15.45576,47.55619,8.30666,72.51765-12.53125,93.96875-23.93381,3.26266-36.70527,3.14023-56.53125-.53125-23.02406-4.26369-30.03493,9.07596-27.84375,25.875c2.9845,22.88107-4.96245,61.68074-33.812503,102.46875c70.632893,35.81387,179.209023,13.94889,180.062503,2c.56823-7.95525-9.80726-51.00234-20.15625-86.0625c17.54708-6.66147,49.26834-18.40625,54.96875-18.40625c7.95864-.00002,85.54159,25.86421,87.53125,35.8125s-3.97932,79.58835,0,84.5625s23.17446,5.46713,26.875,1c4.32992-5.22689-.84198-78.77235,4.34375-86.78125c5.82865-9.00185,63.79135-25.62504,71.75-25.625c5.7004,0,40.42164,6.74479,57.96875,13.40625-10.34899,35.06016-22.72448,77.13849-22.15625,85.09375.85348,11.94889,106.42963,36.78261,177.0625.96875-15.91728-49.74148-26.70149-74.75242-25.84375-98.5.9063-25.09185-2.81969-35.10741-25.84375-30.84375-23.28189,4.31146-49.51673,2.78447-83.09375-.46875-33.32812-3.22909-42.78103-14.9269-48.75-18.90625s-10.4375-66.15625-10.4375-66.15625-3.38112,1.7779-3.625,1.90625c30.1872-51.9425,40.0895-74.71698,27.3125-102.84375-15.26161-33.5963-13.23895-52.52041-2.1875-103.625c6.15787-28.47552,39.32424-85.05716,42.5625-105.125c4.89993-30.36516,7.86004-29.03596-21.3125-41.96875-22.34948-9.90798-64.17388-28.24864-108.5-36.75.06403-.9661.09375-1.92403.09375-2.90625c0-12.63305-5.37631-24.03264-13.96875-32c13.0755-14.25052,28.52529-31.49968,42.8125-48.21875-13.24328-16.18624-40.32928-26.41787-69.90625-26.25-.23474.00133-.45346-.00649-.6875,0-.04388.00122-.1088-.00003-.15625,0-.00387.00008-.02534.00007-.03125,0-.00562.00027-.02589-.00007-.03125,0-.02071-.00028-.04192.00005-.0625,0-.00645-.00007-.02847-.00019-.03125,0-.00398.00008-.0274.00007-.03125,0-.01127-.00052-.05038-.00048-.0625,0-.00278.00008-.02875.00007-.03125,0s-.02839-.00016-.03125,0c-.00652.00006-.02863.00018-.03125,0-.00266-.00002-.02858-.00016-.03125,0-.01069-.00029-.05176.00007-.0625,0-.00281-.00006-.02784.00017-.03125,0-.00178-.0002-.02424-.00006-.03125,0Zm-4.03125,83.9375c.04322-.00429.08171.00404.125,0c.00543-.00051.02597.00018.03125,0c.02071.00021.04177-.00028.0625,0c.00529-.00016.02581.00047.03125,0c.00273-.00024.02478-.00008.03125,0c.02069.0002.04179-.00026.0625,0c.00647.00007.02852.00022.03125,0s.02479-.00008.03125,0c.02068.00018.0418-.00025.0625,0c.00646.00007.0285.0002.03125,0s.02479-.00007.03125,0c.02066.00017.04182-.00023.0625,0c.00646.00006.02849.00019.03125,0s.0248-.00007.03125,0c.02065.00015.04183-.00022.0625,0c.00645.00006.02847.00018.03125,0s.0248-.00006.03125,0c.02063.00013.04185-.0002.0625,0c.00534-.0001.02565.00032.03125,0c.09022-.0051.19074.00399.28125,0c.13738-.00606.26823.0035.40625,0c.18695-.00474.37441,0,.5625,0c12.03745.00001,21.8125,9.77505,21.8125,21.8125s-9.77505,21.8125-21.8125,21.8125-21.8125-9.77505-21.8125-21.8125c.00001-11.305,8.66614-20.71788,19.6875-21.8125Zm-38.15625,47.5c.04037-.00499.0849.00441.125,0c.00535-.00059.02599.00022.03125,0c.02081.0002.04176-.00035.0625,0c.00524-.00016.02594.00052.03125,0c.00284-.00027.02482-.00009.03125,0c.02064.00018.04191-.00033.0625,0c.00644.00008.02843.00023.03125,0c.00627.00009.02808.00009.03125,0c.02634.00016.06749-.00031.09375,0c.00316-.00007.02497-.00007.03125,0s.02801.00009.03125,0c.02618.00013.06768-.00029.09375,0c.00322-.00006.02503-.00006.03125,0c.00337-.0002.0251-.00007.03125,0c.02599.00009.06786-.00027.09375,0c.00656-.00009.02456.00032.03125,0c.15857-.00753.31343.00239.46875,0c9.18519-.14149,10.98428,7.42396,5.90625,14.40625-5.62761,7.73796-15.48144,18.27931-21.8125,22.5s-29.03239,5.95809-44.3125,9.15625c-15.12419,3.16553-33.74544,9.84245-43.59375,12.65625s-10.5625-9.12043-10.5625-18.96875c0-10.07188,12.66047-14.79331,37.28125-22.53125s61.91635-14.76466,73.875-16.875c.669-.11806,1.30075-.26894,1.90625-.34375Zm77.71875.09375c.03553-.00374.05804.00344.09375,0c.0041-.00016.02742-.00004.03125,0c.01084.00062.05015.00038.0625,0c.00411-.00014.02743-.00004.03125,0c.01078.00056.05011.00034.0625,0c.02748-.00216.06655-.00072.09375,0c.03628.00128.088.00225.125,0c.07459-.00452.14342.00323.21875,0c.15306-.00655.31264.00112.46875,0c.84672-.00606,1.75323.08513,2.6875.25c11.95865,2.11034,47.81673,10.54329,72.4375,18.28125s45.03125,18.08437,45.03125,28.15625c.00001,16.88281-4.21354,26.00196-15.46875,21.78125-9.59027-3.59636-29.90706-12.30322-45.03125-15.46875-15.28011-3.19817-39.38769-7.71679-45.71875-11.9375s-16.87239-14.79329-22.5-22.53125c-4.9687-6.83199-1.68538-17.57655,7.375-18.53125Zm-37.84375,46.125c.00277.00002.02798-.00017.03125,0c.00654.00006.0287.00003.03125,0c.0154.00044.04661-.0006.0625,0c.00538.00002.02578.00026.03125,0c3.64687-.17262,7.33511,2.54651,8.6875,7.59375c3.3224,12.39937,7.61256,24.73625,18.3125,36.5625c13.36556,14.77247,4.55515,47.3395-28.84375,47.125-33.4018-.21451-42.59868-32.89092-23.9375-49.21875c13.06151-11.42833,14.59104-22.57495,17.59375-33.78125c1.43076-5.33965,4.64492-7.96895,7.9375-8.25.00274-.00023.02479-.00018.03125,0c.00277.00006.028-.00018.03125,0c.00262-.00285.02863-.02773.03125-.03125Zm-179.6875,4.75c.00701-.00006.02948-.0002.03125,0c.00312.00014.02848-.0001.03125,0c.00345-.00011.0284,0,.03125,0c.01133.00558.0523.02584.0625.03125c2.28538,1.1832,20.37433,34.74069,16.75,40.78125-4.2207,7.0345-28.13834,7.7526-33.0625,2.125-4.27073-4.88083,16.15625-42.90625,16.15625-42.90625-.00018-.00175-.00005-.02423,0-.03125Zm317.5625,41c.0063.0001.02811.00014.03125,0c.03956-.00073.08991-.00059.125,0c.00388-.00004.02537-.00005.03125,0c.84452-.04083,1.62931.13831,2.34375.53125c9.16306,5.03968-37.99142,108.88738-133.65625,109.03125-107.73098.16201-155.32643-74.91393-146.3125-84.40625c13.94007-14.6799,40.03959,48.80064,138.5625,48.53125c83.84773-.22926,122.96879-72.36967,138.875-73.6875ZM249.85157,436.39062c17.74896,37.82706,19.29588,55.8662,12.46875,85.4375-6.55842,28.40744-14.27174,53.6342,25.875,115.59375-1.97885,19.35635-5.97908,52.56938-10.1875,55.375-4.36323,2.90881-17.48845,8.86632-37.25,13.90625c2.40182-7.27194,5.02809-16.8396,7.5625-29.28125c7.73795-37.98634-2.82129-46.41278-17.59375-99.875-10.38496-37.58368,2.19455-89.76706,19.125-141.15625Zm136.125,51.53125c.10242-.00323.21146.00288.3125,0c.20367-.00581.39577.00437.59375,0c.3005-.00664.58794.00331.875,0c4.00929-.04624,6.71939.24139,7.53125.90625.0063.00541.0252.02579.03125.03125.00581.00551.02569.02569.03125.03125c4.92416,4.92415,6.33039,48.54391,1.40625,54.875s-109.54766-12.68529-108.34375-31.65625c.70832-11.16153,71.44538-23.36376,97.5625-24.1875Zm-85.59375,57.96875l23.90625,7.71875-2.8125,19l74.125,1.25c1.82392,4.88173,2.86751,11.30343,2.5625,19.84375-.22532,6.30907-.66813,10.67972-1.46875,14.0625-.0023.00971.0023.02156,0,.03125-9.31086,11.83976-38.03575,5.58529-38.625,12.65625-.35536,4.26414,24.61653,18.2819,42.90625,16.875s37.98404-9.15299,38.6875-16.1875c.28386-2.83875-16.97168-3.61131-23.21875-13.375c0-5.19861,0-6.18131,0-12.65625c0-10.83532-1.7235-13.03684,2.3125-20.875l70.84375,1.1875c5.62761,11.25521,1.40754,32.3711-1.40625,40.8125s-16.1644,17.58791-32.34375,30.25-36.58463,30.24999-56.28125,30.25-36.58856-16.19951-47.84375-23.9375c-9.0176-6.1996-39.36148-15.52955-45.71875-32.34375-9.14486-24.18698-5.62501-74.56247-5.625-74.5625Zm105.125,144.90625c.06967-.00371.14921.00352.21875,0c.07009-.00354.14881.00335.21875,0c.07049-.00337.14841.00317.21875,0c.07089-.0032.14803.00299.21875,0c.07128-.00302.14766.00281.21875,0c.07165-.00283.14729.00262.21875,0c.07202-.00264.14694.00243.21875,0c.1459-.00494.29253.00405.4375,0c.22268-.00623.43601.00413.65625,0c.38199-.00717.75157.00076,1.125,0c5.18297-.01051,9.45096.6099,10.6875,2.09375c3.51725,4.2207-12.65383,55.99583-18.96875,56.28125-7.75738.35065-19.70475-49.24805-16.1875-53.46875c1.99427-2.39313,11.87011-4.43512,20.71875-4.90625ZM154.91407,732.07812c.00701-.00006.02947-.0002.03125,0c.00281.00002.02783-.00016.03125,0c.01074.00005.05176-.00028.0625,0c.00261-.00016.02864.00001.03125,0c.0052.00028.02605-.00015.03125,0c.08338-.00632.16567.002.25,0c7.02775-.16716,17.84058,2.99998,28.65625,3c14.92244,0,32.84352-3.97935,38.8125,0s18.88557,84.55712,14.90625,89.53125-7.96199,8.94267-48.75,9.9375-64.64568-2.96856-68.625-8.9375s4.97475-22.16243,12.9375-44.78125c9.19805-26.1278,10.9321-41.77584,15.90625-46.75c1.2824-1.2824,3.22185-1.85126,5.65625-1.96875.00294.00008.02856.00001.03125,0c.00342.00015.02844-.00002.03125,0-.00018-.00176-.00005-.02423,0-.03125Zm468.5,3.59375c.13193-.00487.27431.00468.40625,0c.1362-.00483.27005.00462.40625,0c.14059-.00477.26566.00456.40625,0c.14512-.00471.29241.00449.4375,0c.14977-.00463.28777.0044.4375,0c.15456-.00454.31429.0043.46875,0c.15944-.00443.30943.00418.46875,0c.16446-.00431.33572.00403.5,0c.16958-.00416.33065.00387.5,0c.17482-.00399.35674.00367.53125,0c.18014-.00379.35147.00344.53125,0c.18558-.00355.37739.00317.5625,0c.19109-.00327.37195.00285.5625,0c.4065-.00609.81522.00409,1.21875,0c9.748-.09873,18.50774.38274,21.5,3.375c4.97414,4.97413,6.7082,19.6222,15.90625,45.75c7.96278,22.61883,10.94807,40.81227,6.96875,46.78125s-27.83699,9.93233-68.625,8.9375-53.73943-5.96335-57.71875-10.9375s16.90602-84.55194,22.875-88.53125s24.89006-4.96875,39.8125-4.96875c3.68912,0,7.75406-.25516,11.84375-.40625Zm-328.65625,25.25c-12.49879,1.31663-22.21874,12.03168-22.21875,24.875c0,13.72865,11.14634,24.87503,24.875,24.875s24.875-11.14634,24.875-24.875-11.14637-24.87499-24.875-24.875c-.05363,0-.1027-.00034-.15625,0-.21336.00135-.41294-.0067-.625,0-.10437.0033-.20845-.00459-.3125,0-.10324.00455-.20959-.00581-.3125,0-.00621-.00006-.02801-.00006-.03125,0-.02612-.00023-.06765.00015-.09375,0-.00323.00007-.02504.00007-.03125,0s-.02802-.00007-.03125,0c-.02614-.00025-.06763.00017-.09375,0-.00323.00008-.02504.00008-.03125,0s-.02803-.00007-.03125,0c-.02615-.00027-.06762.00019-.09375,0-.00322.00009-.02503.00008-.03125,0s-.02803-.00008-.03125,0c-.02617-.00028-.0676.00021-.09375,0-.00321.00009-.02502.00009-.03125,0s-.02804-.00009-.03125,0c-.02619-.0003-.06758.00022-.09375,0-.0032.00009-.02502.00009-.03125,0s-.02805-.00009-.03125,0c-.02621-.00032-.06756.00024-.09375,0-.0032.00011-.02501.0001-.03125,0s-.02805-.00009-.03125,0c-.02622-.00033-.06755.00026-.09375,0-.0032.00011-.02501.0001-.03125,0-.00614.00061-.02487-.0002-.03125,0-.02624-.00035-.06753.00028-.09375,0-.00638.00023-.02512-.00064-.03125,0Zm194,6.96875c-12.499,1.31631-22.21876,12.03148-22.21875,24.875c0,13.72865,11.14635,24.87503,24.875,24.875s24.87501-11.14634,24.875-24.875-11.14636-24.87499-24.875-24.875c-.16088,0-.30859-.00305-.46875,0-.15828.00301-.3112-.00596-.46875,0-.1038.00393-.20902-.0052-.3125,0-.00642.00032-.02477-.0001-.03125,0-.0261-.00021-.06767.00013-.09375,0-.00323.00006-.02505.00006-.03125,0s-.02802-.00006-.03125,0c-.02612-.00023-.06765.00015-.09375,0-.00323.00007-.02504.00007-.03125,0s-.02802-.00006-.03125,0c-.02614-.00025-.06763.00017-.09375,0-.00323.00008-.02504.00007-.03125,0s-.02803-.00007-.03125,0c-.02615-.00026-.06762.00019-.09375,0-.00322.00008-.02503.00008-.03125,0s-.02803-.00007-.03125,0c-.02617-.00028-.0676.00021-.09375,0-.00321.00009-.02502.00009-.03125,0s-.02804-.00008-.03125,0c-.02619-.0003-.06758.00022-.09375,0-.0032.00009-.02502.00009-.03125,0s-.02805-.00009-.03125,0c-.02621-.00032-.06756.00024-.09375,0-.0032.0001-.02501.0001-.03125,0s-.02805-.00009-.03125,0c-.02622-.00033-.06755.00026-.09375,0-.0032.00011-.02501.0001-.03125,0-.00614.00061-.02487-.0002-.03125,0-.02624-.00035-.06753.00028-.09375,0-.00638.00023-.02512-.00064-.03125,0Z" fill="#fff" fill-rule="evenodd"/></g></svg>
