<svg id="ewbvqu429sK1" xmlns="http://www.w3.org/2000/svg" xmlns:xlink="http://www.w3.org/1999/xlink" viewBox="0 0 793.688 1122.52" shape-rendering="geometricPrecision" text-rendering="geometricPrecision" project-id="dc9c0a912c3a4aea85bd65e4e7b59d03" export-id="e82c6a4934d2413fa92b7ac763ace4d2" cached="false"><g transform="translate(19.10428 13.044454)"><path d="M426.05143,149.00456c.00012.0017-.00026.02957,0,.03125-.01587.00025-.04985-.00019-.0625,0-52.56507.81714-104.43225,30.25613-128.4375,63.40625-15.82085,21.84783-22.75734,66.87796-6.78125,117.1875l-53.5,76.96875c-7.44002-15.94677-28.64092-26.06973-52.28125-23.5625-28.06621,2.97661-49.00257,22.63571-46.75,43.875c1.02664,9.68012,6.6984,18.0301,15.21875,23.96875l15.84375,207.1875c-35.43402,39.11828-70.8125,132.62503-70.8125,132.625s-17.58984-7.73598-26.03125-4.21875-17.86237,85.14898-19,94.25c-1.4069,11.25521,47.29522,56.50878,121,65.40625c77.76088,9.38709,142.79295-35.15626,252.53125-35.15625c106.30487-.00001,134.36653,8.44628,220.1875,23.21875c12.66211-12.66211,18.30046-66.14225,10.5625-130.15625c0,0,21.80271-2.10383,42.90625-14.0625c0,0-28.85712-73.85254-33.78125-88.625s2.1149-41.51141-9.84375-50.65625-79.48701,14.06313-107.625,12.65625-23.92157-22.49969-24.625-56.96875c-.66173-32.42461-5.68816-46.82371,15.96875-67.15625c47.28017,23.98834,88.5699,43.15348,92.375,39c8.93293-9.75076-44.33336-132.22265-66.84375-191.3125c0,0,87.24317,26.71031,135.78125-22.53125c0,0-42.8912-16.88362-97.75-54.15625c1.94602-.44428,64.46436-15.24566,95.625-90.03125c0,0-62.60379,16.88151-142.09375,2.8125c0,0,33.05726-15.50032,44.3125-48.5625-30.24838.70345-76.6582-4.21094-139.96875-21.09375-11.31429-3.01715-22.90274-4.38665-34.46875-4.34375-.28441.00106-.58749-.00644-.875,0-.07188.00161-.14838-.00289-.21875,0-.0066.00027-.02469-.00007-.03125,0-.02615-.00028-.06784.00005-.09375,0-.00324.00008-.02506.00007-.03125,0-.03055.00046-.09452-.00095-.125,0-.01149.00024-.0503.00053-.0625,0-.00392-.00002-.02749-.00016-.03125,0-.00264.00008-.02862.00007-.03125,0-.00261-.00018-.02473-.00005-.03125,0-.00269-.00006-.0283.00017-.03125,0-.00344-.00016-.02841.00002-.03125,0-.00357-.00017-.0284.00003-.03125,0-.00169-.00026-.02954.00013-.03125,0Zm1.0625,22.03125c44.97093,4.94047,80.61616,20.35812,125.71875,24.5625-19.37822,19.49325-31.20198,24.11606-47.34375,39.90625c58.44545,12.64321,76.54673,14.84139,137.34375,18.59375-30.0914,26.22163-43.46052,39.13235-81.28125,53.65625c36.2961,26.5142,41.73303,36.01474,81.53125,56.96875-35.70896,11.06817-73.80924,3.14933-108.34375-8.28125-.03075-.01742-.06823-.02587-.09375-.03125-.00606-.0006-.02552-.00015-.03125,0-.00541.00089-.02616-.00163-.03125,0-.01906.0095-.04854.04124-.0625.0625-.00317.00604-.02839.02448-.03125.03125-.61004,1.79979,7.84867,24.50582,19.40625,54.75-31.53689-16.79324-72.84904-41.05961-95.9375-63.75l13.34375,88.625c0,0-45.01561-33.74119-78.78125-86.5l2.5625,95.9375c-37.78161-27.27151-69.5002-65.10927-85.84375-107.8125-11.98282-32.6131-11.96704-75.08919,3.5-107.59375c24.8533-36.9333,69.17604-57.30365,112.875-59.09375h.5l1-.03125ZM297.55143,355.94206c4.92416,12.66211,9.16569,16.88313,22.53125,33.0625l-76.6875,103.40625-49.25,7.03125c-.07869-1.54095,78.88165-109.86626,103.40625-143.5Zm220.90625,72.46875l39.375,13.34375l30.96875,85.125-47.15625-21.8125-23.1875-76.65625ZM392.11393,482.19206c-7.53446,80.22403-25.22715,96.68906-49.75,82.8125-6.27123-13.06979-15.16123-16.95425-28.15625-16.5625-1.28487.03873-2.63345.13244-4,.25-10.02044.862-18.75059.70912-26.40625,1.8125-.96437-1.17107-2.01497-2.49447-3.125-3.9375-6.27626-8.15914-5.27078-8.45831,19-42.40625l51.34375,12.1875l3.84375-27l37.25-7.15625Zm-118.125,22.71875c-5.22183,8.34901-11.70943,18.64226-17.21875,26.90625-9.12348,13.68522-5.83151,21.27547,1.78125,34.96875-9.12802,14.49499-27.50742,43.85026.3125,48.71875c2.591.45343,5.05414.85626,7.40625,1.25-.539,11.20487,6.71383,36.45238,22.84375,40.96875c17.58627,4.92415-2.8226,30.26597-14.78125,29.5625-14.47698-.85159-14.0573-11.27864-25.3125-16.90625-8.90812-4.45406-17.79417,1.22097-25.65625-11.5625l-7.46875-142.71875l58.09375-11.1875Zm230.375,55.03125l.71875,36.59375c.00002-.00002-92.85579,14.05924-100.59375,21.09375s-34.46875,71.75-34.46875,71.75l-38.6875-16.1875c0,.00003,29.52734-73.84049,37.96875-80.875s135.0625-32.375,135.0625-32.375Zm-206.53125,6.21875c.06845-.00502.15024.00468.21875,0c.06905-.00472.14965.00438.21875,0c.06964-.00441.14905.00407.21875,0c.07025-.0041.14845.00375.21875,0c.07085-.00378.14785.00343.21875,0c.07146-.00346.14724.0031.21875,0c.07207-.00313.14663.00277.21875,0c.07269-.00279.14602.00243.21875,0c.14777-.00493.28955.00343.4375,0c.22726-.00526.45987.00174.6875,0c6.53838-.04991,13.20297,1.37293,19.375,4.1875c14.76021,6.73095,20.56965,65.29124,6.6875,56.4375-19.28288-12.29825-28.79832-21.0995-55.09375-27.28125-13.19797-3.1027-3.03324-16.45111,3-23.46875c6.25066-5.88334,14.46326-9.23804,23.15625-9.875Zm339.3125,116.90625c.02508-.00466.04223.00394.0625,0c.00382-.00055.02758.00036.03125,0c.01345-.00018.05181-.00108.0625,0c.00376.00036.02836.00003.03125,0c11.95856,53.44812,29.53125,94.25,29.53125,94.25-59.08988,18.28972-129.4375,6.3125-129.4375,6.3125c7.73794-52.75879,7.75-95.65625,7.75-95.65625c46.94841,2.01211,88.784-4.31482,91.96875-4.90625Zm-415.375,3.34375c.0951-.00411.18652.00361.28125,0c.09511-.00362.18651.00311.28125,0c.09511-.00312.18652.00261.28125,0c.0951-.00262.18653.00209.28125,0c6.33073-.13983,11.77596.92041,15.5625,3.6875c18.28973,13.36559,19.69402,56.24967,5.625,90.71875s-71.03125,56.28125-71.03125,56.28125l-57.6875-37.96875c25.32422-60.49679,29.55663-79.49479,42.21875-90.75c4.04237-3.5932,39.93817-20.92106,64.1875-21.96875Zm99.78125,2.9375c.00399-.00142.02757.00119.03125,0c.00277.00002.02799-.00016.03125,0c.00503-.00032.02624.00003.03125,0c.01511.00051.04645-.00048.0625,0c.0064.00005.02837.00017.03125,0c11.69688-.69859,101.02632,42.83947,191.0625,120.3125c0,0-9.83137,41.52963-36.5625,78.8125-95.66929-87.93133-194.15366-123.80791-199.78125-133.65625s-1.39355-34.47883,4.9375-46.4375s29.542-17.59309,40.09375-19c.00368-.00105.02726.00132.03125,0c.00847-.00313.02327-.02842.03125-.03125Zm-2.75,19.03125c-11.82648.6696-21.25001,10.50731-21.25,22.5c0,12.42575,10.10551,22.53124,22.53125,22.53125s22.49999-10.1055,22.5-22.53125-10.07424-22.49998-22.5-22.5c-.29123,0-.58644-.01098-.875,0-.09393.00357-.18761-.00472-.28125,0-.04645.00234-.07862-.00263-.125,0ZM249.02018,815.28581c35.87597,47.83466-21.11262,72.48373-47.84375,40.125c21.80696-12.66209,47.84375-40.125,47.84375-40.125Z" fill-rule="evenodd"/></g></svg>
