<svg id="eXtHuSkqMyY1" xmlns="http://www.w3.org/2000/svg" xmlns:xlink="http://www.w3.org/1999/xlink" viewBox="0 0 793.688 1122.52" shape-rendering="geometricPrecision" text-rendering="geometricPrecision" project-id="dc9c0a912c3a4aea85bd65e4e7b59d03" export-id="e5e7f45c34b04815b4e97bf97e35f73c" cached="false"><g transform="translate(63.678518 121.299597)"><path d="M472.52781,75.664773c-.0764.00923-.1332.02877-.2187.03125-33.0156.95487-55.7143,35.481067-113.75,36.343747-53.329.79271-82.228-32.510167-122.40626-25.312497-19.31245,3.4597-25.27467,12.68679-26.3125,35.624997-2.60844-.51625-5.14538-.7633-7.59375-.71875-25.2895.46014-41.25864,29.33105-33.375,53.8125-19.51958,18.40921-39.6998,39.83801-57.0625,60.3125c24.05451,31.83153,62.59812,52.12461,103.21875,51.0625c1.36506,26.40216,2.51793,47.3836.46875,62.5625-2.49004,18.44453,1.56753,34.11244,17.96875,35.21875.61332,17.471-1.64777,29.82706-9.9375,37.65625-12.66212,11.95866-23.91829,22.49609-31.65625,30.9375s-9.84831,17.60188,0,33.78125c1.11683,1.83478,2.12699,3.80738,3.03125,5.90625-17.1152,14.84484-26.26451,39.44434-25.5625,53.875.5233,10.75765,9.03158,22.71967,24.03125,27.25-2.34448,15.43849-2.00157,29.37265,4.8125,39.59375c8.4414,12.66207,20.40851,20.40625,49.25001,20.40625c3.8926-.00001,7.6092.27335,11.125.71875-18.92478,81.22117-39.28126,169.53125-39.28126,169.53125s287.70276-48.55729,288.40626-59.8125c.5338-8.54119-9.1416-90.02017-7.0313-113.9375c2.0774-23.54365,7.5579-49.83928-8.375-49.3125-.2529.00834-.4862.04052-.75.0625-.321.02676-.6918.05539-1.0937.09375c7.2914-17.42091,16.3044-27.07978,33.4375-47.9375c32.3587-39.39322,37.2877-75.98112,23.2187-116.78125-.7977-2.31348-1.7261-4.60293-2.75-6.875c20.9437-134.82918-35.645-327.579887-59.8437-332.874997-3.9224-.85829-7.6711-1.25271-11.2813-1.21875-.1529.00144-.3184-.00635-.4687,0-.0329.00139-.0905-.0011-.125,0-.0272.00216-.0683-.00308-.0938,0ZM205.9966,137.94602c.05561-.00347.10052.00283.15625,0c.00699-.00036.02458.00014.03125,0c.02578.00008.06794-.00024.09375,0c.00668-.00008.02424.00027.03125,0c2.65755-.10428,5.46281.53303,8.28125,2.03125c18.33476,9.74634,8.22597,32.02361-6.78125,42.21875c1.8981,27.75114,4.891,51.25878,7.3125,78.96875-29.98836,1.69139-57.58565-8.51037-78.0625-29.5625c12.70128-13.78448,38.29429-39.59777,51.75-52.6875-7.45334-18.56295,3.00651-40.08444,17.1875-40.96875Zm288.68751,4c.0036-.00011.0284-.00001.0312,0c.0033.00311.0285.02836.0313.03125-.0002.00165-.0001.0242,0,.03125.8492,1.40311,7.3276,21.92191,15.4062,49.1875-20.7517,21.10352-116.0724,35.51448-179.0312,21.09375-14.069,34.8208-41.1388,77.39095-95.65626,76.6875c0,0-1.05517-31.99949,0-49.9375c11.95866-5.27588,48.53076-23.94204,66.46876-81.625c33.7656,9.84831,113.9635,22.8693,192.75-15.46875Zm-135.9063,220.75c6.4157-.07126,13.0028.09289,19.75.53125-6.5584,22.70115-17.6247,58.4635-29.0937,84.375-18.9932,42.91047-40.125,73.15625-40.125,73.15625s13.7234,14.78126,30.9687,14.78125c17.5863,0,34.4688-9.84375,34.4688-9.84375s9.1335,16.17096,22.5,22.5c6.9475,3.28964,18.2805,2.25929,31.1875-4.5625l42.5625,29.4375c-1.634,3.48212-3.2054,7.22344-4.7188,11.25-37.2867,5.00675-106.6017,15.5498-166.1875,28.53125c4.7181-18.52757,9.6202-39.12021,9.25-43.5625-51.3519,44.31734-61.2096,41.50065-80.90621,40.09375s-19.7041-13.38509-17.59375-25.34375c.31811-1.80275,1.00619-4.66135,1.90625-8.28125c22.11093-.91818,54.60781-6.8611,71.96871-29.6875-15.4759-4.92419-16.1763-14.03238-13.375-32.375c2.5678-16.81329-12.6532-34.10214-42.96871-33.4375-2.02105.04428-4.09568.16562-6.25.375-2.92348.28411-5.73289.84814-8.4375,1.65625-5.00503-9.43318-5.45349-14.34038,2.8125-24.15625c7.66131-9.09781,20.83797-21.10925,29.37501-33.1875c4.8456,6.76148,10.8399,14.43536,14.2187,16.3125c6.3311,3.51725,44.9981-9.13966,49.2188-11.25s6.3437-10.56251,6.3437-10.5625l-61.4687-31.03125c-.1454-2.35637-.3452-4.73316-.5625-7.0625c22.6903-6.00063,59.5482-18.14965,105.1562-18.65625Zm38.5625,2.46875c1.8364.25843,3.6754.54006,5.5313.84375c59.0049,9.65534,105.7257,47.12504,124.5937,64.375c7.9265,20.91171,9.5006,38.65841-3.5937,65.75-12.2011,25.2437-27.6913,37.15019-41.4688,57.09375l-36.2812-22.0625c6.4775-5.73994,13.0352-12.91389,19.375-21.65625c17.2352-23.76679,23.4996-73.69109,0-84.40625-20.2136-9.21678-46.021-1.67161-46.4375,2.8125-.8127,8.74822-2.1185,26.02148-16.1875,47.125s-37.985,45.01856-70.3438,38.6875c26.7187-39.79382,53.8783-108.99563,64.8125-148.5625Zm42.8125,81.53125c.0905-.00415.1903.00329.2813,0c.1397-.00506.2654.00303.4062,0c12.0916-.25974,28.3079,6.97726,23.9375,28.34375-6.2862,30.73301-45.464,61.11914-63.3125,50.65625-10.2-5.97936-.042-24.78377,10.8438-39.625c10.3595-14.12361,15.4679-30.65607,16.5937-34.25.9053-2.88974,5.5524-4.8633,11.25-5.125ZM226.1841,500.28977c.09468-.0038.18653.00295.28125,0c.1263-.00393.24843.00307.375,0c.16876-.0041.32929.00324.5,0c.22762-.00432.45642.00346.6875,0c.3081-.00461.62564.00363.9375,0c.41581-.00487.82828.00309,1.25,0c6.61765-.04843,13.89666.26597,18.18746,5.5625.6219,11.95666-2.2994,25.13151,3,36.59375-14.51228,6.25573-32.27675,11.42882-48.90621,8.46875-5.85393.08842-11.30541-4.09189-11.28125-10.21875c2.74712-18.08616,14.93315-37.31557,34.125-40.375.27403.00302.5597-.01986.84375-.03125ZM399.68411,641.75852c.0033-.00031.0251-.00011.0312,0c.0264.00021.0681-.00037.0938,0c.0032-.00008.025-.00009.0312,0s.028.0001.0313,0c.0266.00017.0679-.00033.0937,0c.0032-.00007.025-.00007.0313,0c.003-.00023.0249-.00008.0312,0c.0209.00012.0424-.00029.0625,0c.0065.00006.0285.00018.0313,0c.2773-.01838.4919-.00747.6562,0c6.678.30351,16.0882,13.69288,11.9375,33.0625-4.2207,19.69659-14.1178,28.48151-21.7812,30.25-9.1449,2.11036-126.6231,27.4388-130.8438,24.625s8.4833-62.17004,14.75-63.3125c6.3576-1.15906,111.2429-23.36859,124.8438-24.625Zm-35.75,16.15625c-10.4842.85037-18.75,9.70603-18.75,20.40625c0,11.26082,9.1454,20.40623,20.4062,20.40625c11.2609-.00002,20.4063-9.14541,20.4063-20.40625s-9.1454-20.40623-20.4063-20.40625c-.044-.00002-.081-.00028-.125,0-.2187.00137-.4391-.00824-.6562,0-.0852.00323-.1651-.00427-.25,0-.0842.00424-.1661-.00526-.25,0-.0313.00063-.0938-.00078-.125,0s-.0939-.00084-.125,0c-.0412.00309-.0839-.00333-.125,0Z" fill="#fff" fill-rule="evenodd" stroke="#fff"/></g></svg>
